<svg width="24" height="24" viewBox="0 0 24 24" fill="none" xmlns="http://www.w3.org/2000/svg">
<path d="M17.2301 10.3758C18.1436 10.5164 18.776 10.938 19.1273 11.5001C19.4787 12.0623 19.6895 13.046 19.6895 14.3108C19.6895 16.8405 18.9165 18.9485 17.3706 20.5647C15.8247 22.1808 13.8572 23.024 11.4681 23.024C10.5547 23.024 9.64118 22.8835 8.7277 22.5322C7.81421 22.1808 7.11154 21.689 6.47913 21.1268C5.77645 20.4944 5.21431 19.7215 4.86297 19.0188C4.5819 18.2458 4.37109 17.4729 4.37109 16.6999C4.37109 15.8567 4.5819 15.1541 4.93324 14.6622C5.28457 14.1703 5.91698 13.8892 6.68993 13.6784C6.54939 13.3271 6.40886 13.046 6.33859 12.7649C6.26832 12.5541 6.19806 12.3433 6.19806 12.2028C6.19806 11.7812 6.40886 11.2893 6.90073 10.7974C7.39261 10.3056 7.81421 10.0948 8.23582 10.0948C8.44662 10.0948 8.58716 10.0948 8.79796 10.165C9.00877 10.2353 9.21957 10.3056 9.50064 10.5164C8.86823 8.40834 8.23582 6.65165 7.88448 5.4571C7.53314 4.26255 7.39261 3.4896 7.39261 2.99773C7.39261 2.36532 7.53314 1.87344 7.88448 1.5221C8.16555 1.17076 8.65743 0.959961 9.21957 0.959961C10.1331 0.959961 11.3276 3.06799 12.8032 7.35433C13.0843 8.05701 13.2248 8.61915 13.3654 9.04075C13.5059 8.75968 13.6464 8.26781 13.8572 7.70567C15.3329 3.4896 16.5977 1.38157 17.5814 1.38157C18.0733 1.38157 18.4949 1.5221 18.8463 1.87344C19.1273 2.22478 19.3381 2.71666 19.3381 3.2788C19.3381 3.7004 19.1976 4.54362 18.8463 5.73817C18.4246 6.93272 17.9328 8.47861 17.2301 10.3758ZM6.40886 16.5594C6.54939 16.6999 6.7602 16.981 6.971 17.3324C7.60341 18.2458 8.23582 18.7377 8.79796 18.7377C9.00877 18.7377 9.1493 18.6674 9.28984 18.5269C9.43037 18.3864 9.50064 18.2458 9.50064 18.1756C9.50064 18.035 9.43037 17.754 9.21957 17.4026C9.00877 17.0513 8.7277 16.6297 8.37636 16.2081C7.95475 15.7162 7.60341 15.2946 7.39261 15.0838C7.11154 14.873 6.90073 14.7324 6.7602 14.7324C6.40886 14.7324 6.05752 14.9432 5.77645 15.2946C5.49538 15.6459 5.35484 16.1378 5.35484 16.6297C5.35484 17.0513 5.42511 17.4729 5.63591 18.035C5.84672 18.5269 6.12779 19.089 6.54939 19.5809C7.1818 20.2836 7.88448 20.916 8.79796 21.3376C9.71144 21.7592 10.6249 21.97 11.7492 21.97C13.7167 21.97 15.3329 21.2673 16.668 19.7917C18.003 18.3161 18.6355 16.4891 18.6355 14.2406C18.6355 13.5379 18.5652 13.046 18.4949 12.6244C18.4246 12.2028 18.2138 11.9217 18.003 11.7812C17.5814 11.4299 16.8085 11.1488 15.6139 10.8677C14.4194 10.5866 13.1546 10.4461 11.8897 10.4461C11.5384 10.4461 11.2573 10.5164 11.1168 10.6569C10.9763 10.7974 10.906 11.0083 10.906 11.2893C10.906 11.992 11.2573 12.4839 12.0303 12.7649C12.8032 13.046 14.068 13.2568 15.7545 13.2568H16.3869C16.5274 13.2568 16.668 13.3271 16.7382 13.3974C16.8085 13.5379 16.8788 13.6784 16.8788 13.8892C16.7382 14.0298 16.3869 14.2406 15.8247 14.4514C15.2626 14.6622 14.9113 14.873 14.6302 15.0838C13.9978 15.5054 13.5059 16.0675 13.1546 16.6999C12.8032 17.3324 12.5924 17.8945 12.5924 18.4566C12.5924 18.808 12.6627 19.1593 12.8032 19.6512C12.9438 20.1431 13.014 20.4241 13.014 20.4944V20.6349V20.7755C12.5924 20.7755 12.2411 20.4944 11.96 20.0025C11.6789 19.5107 11.6087 18.8782 11.6087 18.035V17.8945C11.5384 17.9648 11.4681 18.035 11.3979 18.035C11.3276 18.035 11.2573 18.1053 11.1168 18.1053H10.8357C10.7655 18.1053 10.6952 18.035 10.5547 18.035C10.5547 18.1756 10.6249 18.2458 10.6249 18.3864V18.6674C10.6249 19.0188 10.4844 19.3701 10.2033 19.6512C9.92225 19.9323 9.57091 20.0728 9.1493 20.0728C8.51689 20.0728 7.88448 19.7917 7.1818 19.1593C6.54939 18.5269 6.19806 17.9648 6.19806 17.3324C6.19806 17.1918 6.19806 17.1215 6.26832 17.0513C6.26832 16.6999 6.33859 16.6297 6.40886 16.5594ZM10.9763 16.9107C11.1168 16.9107 11.3276 16.8405 11.4681 16.6999C11.6087 16.5594 11.6789 16.3486 11.6789 16.2081C11.6789 15.9973 11.5384 15.5757 11.2573 14.873C10.9763 14.1703 10.6249 13.4676 10.2033 12.8352C9.92225 12.3433 9.57091 11.9217 9.28984 11.7109C9.00877 11.4299 8.7277 11.3596 8.44662 11.3596C8.23582 11.3596 8.02502 11.5001 7.74395 11.7812C7.46288 12.0623 7.39261 12.2731 7.39261 12.5541C7.39261 12.7649 7.53314 13.1866 7.74395 13.6784C8.02502 14.1703 8.30609 14.6622 8.7277 15.2243C9.1493 15.7865 9.57091 16.2783 9.99252 16.6297C10.4141 16.7702 10.6952 16.9107 10.9763 16.9107ZM12.4519 9.6029L10.7655 4.89496C10.3439 3.7004 10.0628 2.85719 9.78171 2.50585C9.57091 2.15451 9.36011 1.94371 9.07903 1.94371C8.86823 1.94371 8.7277 2.01398 8.58716 2.15451C8.37636 2.36532 8.30609 2.57612 8.30609 2.85719C8.30609 3.34907 8.51689 4.12201 8.86823 5.24629C9.21957 6.37058 9.78171 7.91647 10.4844 9.74343C10.5547 9.6029 10.6249 9.53263 10.7655 9.53263C10.906 9.46236 11.0465 9.46236 11.1871 9.46236H11.5384C11.7492 9.53263 12.0303 9.53263 12.4519 9.6029ZM14.1383 14.1703C13.7167 14.1703 13.2951 14.1 12.8735 14.0298C12.4519 13.9595 12.1005 13.8892 11.7492 13.7487C11.8897 14.1 12.0303 14.3811 12.1708 14.7324C12.3114 15.0838 12.3816 15.3649 12.4519 15.7162C12.6627 15.4351 12.9438 15.1541 13.2248 14.873C13.5762 14.5919 13.8572 14.3811 14.1383 14.1703ZM16.1761 10.0948C16.8788 8.26781 17.3706 6.72192 17.7922 5.52737C18.1436 4.33281 18.3544 3.63014 18.3544 3.34907C18.3544 3.06799 18.2841 2.85719 18.1436 2.64639C18.003 2.50585 17.8625 2.43558 17.6517 2.43558C17.3706 2.43558 17.0896 2.64639 16.8085 3.13826C16.5274 3.63014 16.1761 4.33281 15.8247 5.38683L14.2789 9.74343L16.1761 10.0948Z" fill="white"/>
</svg>
