<?xml version="1.0" ?><!DOCTYPE svg  PUBLIC '-//W3C//DTD SVG 1.1//EN'  'http://www.w3.org/Graphics/SVG/1.1/DTD/svg11.dtd'><svg height="512px" style="enable-background:new 0 0 512 512;" version="1.1" viewBox="0 0 512 512" width="512px" xml:space="preserve" xmlns="http://www.w3.org/2000/svg" xmlns:xlink="http://www.w3.org/1999/xlink"><g id="_x31_1_x2C__Illustrator_x2C__Adobe_x2C__Ai"><g><path d="M0,0v512h512V0H0z M306.72,365h-37.129c-1.654,0-2.317-1.201-2.978-2.742L245.396,294h-75.902l-20.221,67.484    c-0.332,2.314-1.328,3.516-3.315,3.516h-33.813c-2.319,0-2.979-1.199-2.319-3.893c17.902-58.967,48.063-157.244,69.276-223.917    c0.996-3.852,1.992-7.548,2.651-21.037c0-1.54,0.996-2.153,1.992-2.153h45.745c1.655,0,1.987,0.195,2.65,1.735    c24.523,79.004,51.375,166.071,76.566,245.845C309.37,363.89,308.707,365,306.72,365z M384,361.764    c0,1.932-0.659,3.236-2.612,3.236h-33.869c-1.955,0-2.519-0.922-2.519-3.619V180.634c0-2.313,0.236-3.634,1.868-3.634h34.52    c1.953,0,2.612,0.938,2.612,3.634V361.764z M364.13,152.116c-13.03,0-21.82-9.249-21.82-23.895    c0-14.258,9.445-23.892,22.144-23.892c13.353,0,21.498,9.634,21.498,23.892C385.951,142.867,377.156,152.116,364.13,152.116z"/><path d="M206.617,152c-4.975,25-18.561,69-28.506,105h58.336c-6.63-26-22.873-78-29.498-105H206.617z"/></g></g><g id="Layer_1"/></svg>