<?xml version="1.0" ?><!DOCTYPE svg  PUBLIC '-//W3C//DTD SVG 1.1//EN'  'http://www.w3.org/Graphics/SVG/1.1/DTD/svg11.dtd'><svg height="512px" style="enable-background:new 0 0 512 512;" version="1.1" viewBox="0 0 512 512" width="512px" xml:space="preserve" xmlns="http://www.w3.org/2000/svg" xmlns:xlink="http://www.w3.org/1999/xlink"><g id="_x34__x2C__InDesign_x2C__Adobe"><g><path d="M271.322,288.209c0,57.186,35.988,62.367,47.746,62.367c11.754,0,16.932-2.193,16.932-2.193v-119.15    c0,0-3.387-2.792-13.346-2.792C312.691,226.441,271.322,231.023,271.322,288.209z"/><path d="M0,0v512h512V0H0z M176,383h-43V126h43V383z M379,371.025c0,0-20.542,15.057-64.066,15.057    c-59.11,0-86.889-41.443-86.889-96.217c0-70.852,51.983-98.865,94.997-98.865c5.045,0,12.958,0,12.958,0v-65h43V371.025z"/></g></g><g id="Layer_1"/></svg>