<?xml version="1.0" ?><!DOCTYPE svg  PUBLIC '-//W3C//DTD SVG 1.1//EN'  'http://www.w3.org/Graphics/SVG/1.1/DTD/svg11.dtd'><svg height="512px" style="enable-background:new 0 0 512 512;" version="1.1" viewBox="0 0 512 512" width="512px" xml:space="preserve" xmlns="http://www.w3.org/2000/svg" xmlns:xlink="http://www.w3.org/1999/xlink"><g id="A_-_167__x2C__success_x2C__mountain_x2C__peak_x2C__flag_x2C_"><g><polygon points="464.545,364.927 357.804,236.284 251.067,364.927   "/><path d="M103.555,313.742c1.141-1.407,3.207-1.624,4.613-0.485c1.408,1.14,1.625,3.206,0.485,4.613l-38.103,47.057h114.936    l-22.765-27.416c-0.135-0.137-0.256-0.282-0.363-0.437l-45.92-55.303l-68.983,83.155H62.11L103.555,313.742z"/><path d="M259.594,161.432v32.663L155.921,319.032l9.163,11.04l88.367-105.833c1.16-1.391,3.229-1.578,4.619-0.416    c1.391,1.161,1.576,3.229,0.416,4.62l-89.143,106.762l24.67,29.722h48.53l82.695-99.679l-59.086-71.169v-29.367h13.652v9.164    c0,1.811,1.469,3.28,3.28,3.28h30.708c1.096,0,2.119-0.547,2.727-1.457c0.609-0.91,0.724-2.064,0.305-3.077l-4.662-11.272    l4.627-10.362c0.452-1.015,0.36-2.19-0.243-3.123c-0.606-0.932-1.64-1.495-2.753-1.495h-16.895v-9.228    c0-1.811-1.469-3.28-3.28-3.28h-27.466v-2.594c3.054-1.285,5.204-4.305,5.204-7.818c0-4.675-3.806-8.479-8.483-8.479    c-4.656,0-8.446,3.804-8.446,8.479c0,3.508,2.134,6.525,5.167,7.813v5.88V161.432z M286.365,170.596v-5.884h0.005v5.884H286.365z     M296.903,152.931v8.501c0,1.812-1.468,3.28-3.28,3.28h-0.005c1.812,0,3.28-1.468,3.28-3.28v-8.501H296.903z M266.158,140.422    v17.73h-0.006v-17.73H266.158z M262.873,121.53c0.002,0,0.002,0.001,0.004,0.001c-1.021,0.001-1.885,0.879-1.885,1.919    c0,1.075,0.826,1.917,1.885,1.918c-0.002,0-0.002,0-0.004,0c-1.058,0-1.887-0.843-1.887-1.919    C260.986,122.41,261.85,121.53,262.873,121.53z"/><path d="M79.503,378.028c-1.812,0-3.28,1.469-3.28,3.28c0,1.811,1.468,3.279,3.28,3.279h241.762c1.813,0,3.28-1.469,3.28-3.279    c0-1.812-1.468-3.28-3.28-3.28H79.503z"/><path d="M388.344,390.47H221.041c-1.812,0-3.28,1.469-3.28,3.279c0,1.812,1.468,3.28,3.28,3.28h167.303    c1.81,0,3.279-1.469,3.279-3.28C391.623,391.938,390.153,390.47,388.344,390.47z"/><path d="M426.359,390.47h-20.901c-1.81,0-3.28,1.469-3.28,3.279c0,1.812,1.471,3.28,3.28,3.28h20.901    c1.813,0,3.28-1.469,3.28-3.28C429.64,391.938,428.172,390.47,426.359,390.47z"/><path d="M131.278,390.074H52.054c-1.812,0-3.279,1.468-3.279,3.28c0,1.811,1.468,3.279,3.279,3.279h79.225    c1.812,0,3.28-1.469,3.28-3.279C134.558,391.542,133.09,390.074,131.278,390.074z"/></g></g><g id="Layer_1"/></svg>