<?xml version="1.0" ?><!DOCTYPE svg  PUBLIC '-//W3C//DTD SVG 1.1//EN'  'http://www.w3.org/Graphics/SVG/1.1/DTD/svg11.dtd'><svg enable-background="new 0 0 64 64" height="64px" version="1.1" viewBox="0 0 64 64" width="64px" xml:space="preserve" xmlns="http://www.w3.org/2000/svg" xmlns:xlink="http://www.w3.org/1999/xlink"><g id="Layer_2"><g><line fill="none" stroke="#231F20" stroke-linecap="round" stroke-linejoin="round" stroke-miterlimit="10" stroke-width="2" x1="45.907" x2="48.791" y1="13.446" y2="16.474"/><line fill="none" stroke="#231F20" stroke-linecap="round" stroke-linejoin="round" stroke-miterlimit="10" stroke-width="2" x1="45.835" x2="48.863" y1="16.402" y2="13.518"/></g><g><line fill="none" stroke="#231F20" stroke-linecap="round" stroke-linejoin="round" stroke-miterlimit="10" stroke-width="2" x1="10.608" x2="14.269" y1="48.75" y2="50.771"/><line fill="none" stroke="#231F20" stroke-linecap="round" stroke-linejoin="round" stroke-miterlimit="10" stroke-width="2" x1="11.427" x2="13.449" y1="51.591" y2="47.93"/></g><g><line fill="none" stroke="#231F20" stroke-linecap="round" stroke-linejoin="round" stroke-miterlimit="10" x1="40.242" x2="41.852" y1="11.747" y2="13.436"/><line fill="none" stroke="#231F20" stroke-linecap="round" stroke-linejoin="round" stroke-miterlimit="10" x1="40.202" x2="41.892" y1="13.396" y2="11.787"/></g><g><line fill="none" stroke="#231F20" stroke-linecap="round" stroke-linejoin="round" stroke-miterlimit="10" x1="18.021" x2="20.064" y1="52.358" y2="53.486"/><line fill="none" stroke="#231F20" stroke-linecap="round" stroke-linejoin="round" stroke-miterlimit="10" x1="18.479" x2="19.607" y1="53.944" y2="51.901"/></g></g><g id="Layer_1"><g><polygon fill="none" points="    44.532,30.325 44.532,45.284 20.288,45.284 20.288,30.673 32.41,35.64   " stroke="#231F20" stroke-linecap="round" stroke-linejoin="round" stroke-miterlimit="10" stroke-width="2"/><polygon fill="none" points="    51.358,27.43 45.69,29.834 32,35.64 18.31,29.834 12.642,27.43 30.932,18.716   " stroke="#231F20" stroke-linecap="round" stroke-linejoin="round" stroke-miterlimit="10" stroke-width="2"/><path d="    M32.003,26.464" fill="none" stroke="#231F20" stroke-linecap="round" stroke-linejoin="round" stroke-miterlimit="10" stroke-width="2"/><path d="    M32.003,26.464c0,0,17.351-1.072,17.969,9.933c0,4.575,0,4.575,0,4.575" fill="none" stroke="#231F20" stroke-linecap="round" stroke-linejoin="round" stroke-miterlimit="10" stroke-width="2"/><circle cx="49.973" cy="43.535" fill="#231F20" r="1.203"/></g></g><g id="Layer_3"/></svg>