<?xml version="1.0" ?><svg viewBox="0 0 512 512" xmlns="http://www.w3.org/2000/svg"><g id="E-learning_teaching"><path d="M496.8645,345.6788c0-.0156-.0044-.03-.0045-.0449V128.953a31.5581,31.5581,0,0,0-31.52-31.53H445.7191l-.0791-73.55a15.4791,15.4791,0,0,0-15.47-15.46H269.72a15.4771,15.4771,0,0,0-15.46,15.46v49.59l-33.3844,23.96H196.43v-2.57a30.6853,30.6853,0,0,0-30.65-30.65H125.6A30.6553,30.6553,0,0,0,94.946,94.8556V97.423H46.66a31.5581,31.5581,0,0,0-31.52,31.53V345.6339c0,.0154-.0045.0293-.0045.0449s.0044.0293.0045.0447v41.2a31.558,31.558,0,0,0,31.52,31.53H218.19l-10.2837,75.134H183.5232a5,5,0,1,0,0,10H330.3977a5,5,0,0,0,0-10H306.015l-10.2837-75.134H465.34a31.558,31.558,0,0,0,31.52-31.53V345.7235C496.86,345.7081,496.8645,345.694,496.8645,345.6788ZM217.9993,493.587l10.2837-75.1328h57.3554l10.2837,75.1328ZM465.34,107.423a21.5481,21.5481,0,0,1,21.52,21.53v11.91H444.744a15.3792,15.3792,0,0,0,1.016-5.47l-.03-27.97Zm-203.17-27.33a5,5,0,0,0,2.09-4.06v-52.16a5.467,5.467,0,0,1,5.46-5.46H430.17a5.4775,5.4775,0,0,1,5.47,5.47l.12,111.52a5.4691,5.4691,0,0,1-5.47,5.46h-65.1a14.7024,14.7024,0,0,0-26.193-5.9l-4.4184,5.9H269.85a5.4734,5.4734,0,0,1-5.47-5.48l-.12-32.98a5.0061,5.0061,0,0,0-5-4.99H238.04Zm80.716,90.4512,20.1123,15.0615a11.7351,11.7351,0,0,1,2.3584,16.4287l-2.5654,3.4268a8.6745,8.6745,0,0,1-4.9566,3.2412l-12.9634,3.041a22.3364,22.3364,0,0,0-12.7563,8.3428l-4.3359,5.791-20.7154-15.5147,4.8594-6.4892a22.1945,22.1945,0,0,0,4.436-12.5674l.1831-5.1172a15.2415,15.2415,0,0,1,3.044-8.624l27.4145-36.6074a4.7206,4.7206,0,1,1,7.5572,5.6591L341.8811,163.545A5,5,0,0,0,342.886,170.5441ZM197.0906,271.9581a5.0015,5.0015,0,0,0-3.4732,4.7617v63.959h-80.935V277.8263a5,5,0,0,0-10,0v62.8525H64.2629V247.5294a31.0714,31.0714,0,0,1,31.0362-31.0361h26.8125L147.2654,231.39a14.99,14.99,0,0,0,22.6294-12.8985v-1.998h28.2085a35.1473,35.1473,0,0,1,31.4072,19.1943l13.68,26.6905a11.2293,11.2293,0,0,0,19.07,1.4912l34.6484-47.5518L325.884,239.049l-40.1372,54.3945a42.8911,42.8911,0,0,1-69.4052-.5254l-13.6563-19.1055A5.0009,5.0009,0,0,0,197.0906,271.9581ZM25.14,340.6788V150.8629H80.8656A22.3794,22.3794,0,0,0,97.28,161.423a50.4031,50.4031,0,0,0,21.2,27.6926v17.3777H95.2991a41.0829,41.0829,0,0,0-41.0362,41.0361v93.1494ZM211.0431,150.8629H327.09L311.5818,171.57a25.19,25.19,0,0,0-5.0327,14.26l-.1831,5.1172a12.2452,12.2452,0,0,1-2.4468,6.9316l-5.3259,7.1116a4.9522,4.9522,0,0,0-6.7151,1.2507l-37.7,51.7393a1.2294,1.2294,0,0,1-2.0879-.1631l-13.68-26.69a45.1079,45.1079,0,0,0-40.3066-24.6338H169.89V190.7926a51.0085,51.0085,0,0,0,23.57-27.4795l-.0042-.0029A21.6612,21.6612,0,0,0,211.0431,150.8629Zm-82.5631,43.12a51.1141,51.1141,0,0,0,17.21,2.97,50.5778,50.5778,0,0,0,14.2-2.0278V217.493c0-.0161.0047-.031.0048-.0471v1.0454a4.9914,4.9914,0,0,1-7.5337,4.295L128.48,208.6429Zm62.948-40.575a11.6187,11.6187,0,1,1,11.6186-11.6191A11.6317,11.6317,0,0,1,191.428,153.4083Zm-65.83-79.2041h40.1772a20.5185,20.5185,0,0,1,11.2765,3.3721,20.809,20.809,0,0,1,5.1948,4.8735,20.5172,20.5172,0,0,1,4.1811,12.4058v10.7178l-59.4561-.3252h-.082a14.9451,14.9451,0,0,0-14.6831,12.5937l-.5171,3.3535a3.05,3.05,0,0,1-5.6206,1.1182l-1.119-1.842V94.8529a20.66,20.66,0,0,1,20.6483-20.6487Zm-28.29,52.95.2131.3511a12.9048,12.9048,0,0,0,11.086,6.2832,13.441,13.441,0,0,0,2.6147-.2588,12.9248,12.9248,0,0,0,10.35-10.8105l.5176-3.3535a4.8853,4.8853,0,0,1,4.8-4.1172h.0268l59.5134.3252v5.187A21.6851,21.6851,0,0,0,170.4,136.7892h-4.8133a5.01,5.01,0,0,0-.9536.0959,21.619,21.619,0,1,0,0,9.8079,5.0081,5.0081,0,0,0,.9535.0962h4.8131a21.7,21.7,0,0,0,12.9114,15.0317l-.0008.002a40.7326,40.7326,0,0,1-77.31-6.42,5.01,5.01,0,0,0-4.87-3.88c-.12,0-.23.01-.35.02l-.16.01c-.23.01-.45.03-.67.03a12.3571,12.3571,0,0,1-2.6415-24.4292ZM155.2,141.7892a11.6187,11.6187,0,1,1-11.6186-11.6182A11.6316,11.6316,0,0,1,155.2,141.7892Zm99.08-34.3662.1,27.98a15.3512,15.3512,0,0,0,1.0143,5.46H213.0231a21.6551,21.6551,0,0,0-16.593-20.1015V107.423ZM25.14,128.953a21.5481,21.5481,0,0,1,21.52-21.53H94.946v10.001A22.3967,22.3967,0,0,0,77.59,139.223c0,.553.0373,1.0969.0769,1.64H25.14Zm440.2,279.5H46.66a21.5479,21.5479,0,0,1-21.52-21.53V350.6788H414.9915a5,5,0,0,0,0-10H203.6174V292.3136l4.5884,6.4189a52.891,52.891,0,0,0,85.5874.6485l43.02-58.3008a5,5,0,0,0-.937-6.9023l-1.1465-.9,5.39-7.198a12.3157,12.3157,0,0,1,7.0351-4.6006h0l12.9629-3.041a18.6968,18.6968,0,0,0,10.6773-6.9824l2.5659-3.4278a21.7344,21.7344,0,0,0-4.3687-30.4267l-16.11-12.0645,9.68-12.9267a14.8961,14.8961,0,0,0,1.1087-1.7476H486.86V340.6788H437.3772a5,5,0,0,0,0,10H486.86V386.923A21.5479,21.5479,0,0,1,465.34,408.453Z"/><path d="M316.2278,93.3849a29.5127,29.5127,0,1,0-29.5127-29.5127A29.5461,29.5461,0,0,0,316.2278,93.3849Zm0-49.0254a19.5127,19.5127,0,1,1-19.5127,19.5127A19.5345,19.5345,0,0,1,316.2278,44.36Z"/><path d="M357.3806,113.7081h54.7407a5,5,0,0,0,4.2676-7.6054l-27.3706-44.836a5,5,0,0,0-8.5351,0l-27.37,44.836a5,5,0,0,0,4.2676,7.6054Zm27.37-40.24,18.4605,30.24h-36.92Z"/><path d="M391.281,46.6241h6.2857V52.91a4,4,0,1,0,8,0V46.6241h6.2856a4,4,0,0,0,0-8h-6.2856V32.338a4,4,0,0,0-8,0v6.2861H391.281a4,4,0,0,0,0,8Z"/><path d="M315.9041,114.5685H295.3328a4,4,0,0,0,0,8h20.5713a4,4,0,0,0,0-8Z"/><path d="M256,362.8907a16.7237,16.7237,0,1,0,16.7236,16.7237A16.7424,16.7424,0,0,0,256,362.8907Zm0,23.4473a6.7237,6.7237,0,1,1,6.7236-6.7236A6.7314,6.7314,0,0,1,256,386.338Z"/></g></svg>