<?xml version="1.0" ?><!DOCTYPE svg  PUBLIC '-//W3C//DTD SVG 1.1//EN'  'http://www.w3.org/Graphics/SVG/1.1/DTD/svg11.dtd'><svg height="512px" style="enable-background:new 0 0 512 512;" version="1.1" viewBox="0 0 512 512" width="512px" xml:space="preserve" xmlns="http://www.w3.org/2000/svg" xmlns:xlink="http://www.w3.org/1999/xlink"><g id="_x32_3_x2C__Photoshop_x2C__Adobe"><g><path d="M176.77,145.5c-12.928,0-22.77,0.384-24.77,0.771v91.13c2,0.384,7.546,0.767,21.47,0.767    c26.182,0,51.331-7.462,51.331-46.001C224.801,161.335,207.928,145.5,176.77,145.5z"/><path d="M0,0v512h512V0H0z M172.365,275c-9.281,0-18.365,0-20.365,0v87.325c0,2.315-0.848,2.675-2.508,2.675h-35.136    c-1.655,0-2.356-0.359-2.356-2.287V111.238c0-1.931,0.351-2.653,2.006-2.653c12.595-0.388,37.366-0.726,62.558-0.726    c64.966,0,89.803,37.82,90.135,82.527C266.698,251.658,221.088,275,172.365,275z M345.034,370.381    c-17.262,0-38.774-1.645-52.456-11.666c-1.305-0.771-1.578-1.925-1.578-3.856v-35.454c0-1.927,0.926-2.697,1.902-1.927    c16.935,12.718,35.52,16.332,52.454,16.332c14.984,0,20.147-9.987,20.147-18.464c0-10.019-3.655-15.804-27.107-26.977    c-33.546-16.187-47.555-30.097-47.555-58.229c0-31.218,23.34-57.003,61.771-57.003c19.866,0,33.655,0.533,42.776,6.695    c1.629,1.543,1.61,2.698,1.61,5.013v31.601c0,2.31-0.959,3.469-2.584,2.31c-11.727-7.706-28.028-10.16-44.963-10.16    c-15.962,0-20.165,9.982-20.165,17.304c0,9.252,4.255,14.26,28.684,25.823c33.547,16.187,47.909,30.446,47.909,58.191    C405.881,348.453,380.862,370.381,345.034,370.381z"/></g></g><g id="Layer_1"/></svg>