<?xml version="1.0" ?><svg viewBox="0 0 512 512" xmlns="http://www.w3.org/2000/svg"><defs><style>.cls-1{fill:#0071af;}.cls-2{fill:#575757;}.cls-3{fill:#4a4a4a;}.cls-4{fill:#fda5a3;}.cls-5{fill:#d78d8b;}.cls-6{fill:#00b378;}.cls-7{fill:#bdecdc;}.cls-8{fill:#7db6d6;}.cls-9{fill:#dfdfdf;}.cls-10{fill:#096;}.cls-11{fill:#6b9bb6;}.cls-12{fill:#f4f4f4;}.cls-13{fill:#bebebe;}.cls-14{fill:#f9b7b7;}.cls-15{fill:#d49c9c;}</style></defs><title/><g data-name="/ FILLED_OUTLINE" id="_FILLED_OUTLINE"><polygon class="cls-1" points="464 488 48 488 48 112 256 24 464 112 464 488"/><path class="cls-2" d="M312,128H200a16.00016,16.00016,0,0,0-16,16V296H328V144A16.00016,16.00016,0,0,0,312,128Z"/><path class="cls-3" d="M319.27832,129.76343A15.91216,15.91216,0,0,0,312,128H256v80A80.01954,80.01954,0,0,1,319.27832,129.76343Z"/><path class="cls-4" d="M348.57056,277.1377l-11.13941-61.26661a15.99972,15.99972,0,0,0-8.58642-11.44873l-48-24A16.0002,16.0002,0,0,1,272,166.11133v-3.51489a16.0023,16.0023,0,0,1,.821-5.05957l5.94727-17.842A24.00248,24.00248,0,0,0,280,132.10547V112a24,24,0,0,0-48,0v20.10547a24.00248,24.00248,0,0,0,1.23169,7.58935l5.94727,17.84205a16.0023,16.0023,0,0,1,.821,5.05957v3.51489a16.0002,16.0002,0,0,1-8.84473,14.311l-48,24a15.99972,15.99972,0,0,0-8.58642,11.44873L163.42944,277.1377A16,16,0,0,0,179.17139,296H332.82861A16,16,0,0,0,348.57056,277.1377Z"/><path class="cls-5" d="M240,288H346.6626a15.86568,15.86568,0,0,0,1.908-10.8623l-9.04248-49.73389A111.98786,111.98786,0,0,1,240,288Z"/><path class="cls-6" d="M344.72729,256l-7.29614-40.12891a15.99972,15.99972,0,0,0-8.58642-11.44873l-48-24A15.96972,15.96972,0,0,1,275.43213,176H272l-8.84473,4.42236a15.9995,15.9995,0,0,1-14.31054,0L240,176h-3.43213a15.96972,15.96972,0,0,1-5.4126,4.42236l-48,24a15.99972,15.99972,0,0,0-8.58642,11.44873L167.27271,256Z"/><circle class="cls-6" cx="376" cy="160" r="48"/><polygon class="cls-7" points="357.657 189.657 346.343 178.343 368 156.687 368 136 384 136 384 163.313 357.657 189.657"/><rect class="cls-8" height="48" width="32" x="384" y="248"/><path class="cls-6" d="M148,116l-12-12-24,24,12,12a16.97056,16.97056,0,0,0,24-24Z"/><path class="cls-9" d="M104,296H88V171.88184a55.636,55.636,0,0,1,16.40137-39.59766l41.9414-41.94141,11.31446,11.31446-41.94141,41.9414A39.73222,39.73222,0,0,0,104,171.88184Z"/><rect class="cls-6" height="48" width="112" x="200" y="296"/><rect class="cls-2" height="24" width="16" x="248" y="360"/><path class="cls-10" d="M356.28564,203.762A47.9951,47.9951,0,0,0,419.762,140.28564,96.21557,96.21557,0,0,1,356.28564,203.762Z"/><path class="cls-11" d="M384,288h32V256A32.00018,32.00018,0,0,1,384,288Z"/><path class="cls-9" d="M296,216H216a16.00016,16.00016,0,0,0-16,16v64H312V232A16.00016,16.00016,0,0,0,296,216Z"/><rect class="cls-12" height="16" width="16" x="248" y="248"/><path class="cls-13" d="M240,288h72V232a15.95079,15.95079,0,0,0-.82739-5.05273A72.01688,72.01688,0,0,1,240,288Z"/><polygon class="cls-9" points="440 288 72 288 72 304 88 304 88 488 104 488 104 304 408 304 408 488 424 488 424 304 440 304 440 288"/><path class="cls-10" d="M200,352a47.99987,47.99987,0,0,1,48-48H200Z"/><path class="cls-2" d="M296,336H216a23.99994,23.99994,0,0,0-24,24h0a23.99994,23.99994,0,0,0,24,24h80a23.99994,23.99994,0,0,0,24-24h0A23.99994,23.99994,0,0,0,296,336Z"/><path class="cls-3" d="M272,384h24a23.99735,23.99735,0,0,0,21.87988-33.85938A48.01839,48.01839,0,0,1,272,384Z"/><path class="cls-14" d="M288,368a16.00016,16.00016,0,0,0-16,16V488h32V384A16.00016,16.00016,0,0,0,288,368Z"/><path class="cls-14" d="M224,368a16.00016,16.00016,0,0,0-16,16V488h32V384A16.00016,16.00016,0,0,0,224,368Z"/><path class="cls-15" d="M272,488h32V456A32.00018,32.00018,0,0,1,272,488Z"/><path class="cls-15" d="M208,488h32V456A32.00018,32.00018,0,0,1,208,488Z"/><path class="cls-10" d="M318.3562,256h26.37109l-5.19921-28.59619A112.36424,112.36424,0,0,1,318.3562,256Z"/><path d="M256,15.31348,40,106.69824V496H472V106.69824ZM200,480H104V304h88v34.86816a31.94542,31.94542,0,0,0,8,48.82666Zm34.73242-292.42285a24.251,24.251,0,0,0,4.57324-2.98047l5.96,2.98047a24.10563,24.10563,0,0,0,21.4668,0l5.96143-2.98047a24.25525,24.25525,0,0,0,4.57275,2.98047l47.999,24a8.03588,8.03588,0,0,1,4.29395,5.72461L335.14111,248H320V232a24.0275,24.0275,0,0,0-24-24H216a24.0275,24.0275,0,0,0-24,24v16H176.85889l5.58154-30.69824a8.03715,8.03715,0,0,1,4.293-5.72461ZM192,191.05566V144a8.00917,8.00917,0,0,1,8-8h24.26318a31.95929,31.95929,0,0,0,1.37842,6.22363l5.94824,17.84473A7.97131,7.97131,0,0,1,232,162.59668v3.51465a7.95569,7.95569,0,0,1-4.42285,7.15527Zm72.46753-20.23388-4.89136,2.44482a8.02958,8.02958,0,0,1-7.15429,0l-4.88941-2.44433A24.30346,24.30346,0,0,0,248,166.11133v-3.51465a23.96161,23.96161,0,0,0-1.23145-7.58887l-5.94726-17.84375A15.96,15.96,0,0,1,240,132.10547V112a16,16,0,0,1,32,0v20.10547a15.97043,15.97043,0,0,1-.82129,5.05957l-5.94629,17.84082A23.95606,23.95606,0,0,0,264,162.59668v3.51465A24.29851,24.29851,0,0,0,264.46753,170.82178ZM280,166.11133v-3.51465a7.96582,7.96582,0,0,1,.41113-2.53027l5.94727-17.8418A31.98081,31.98081,0,0,0,287.73682,136H312a8.00917,8.00917,0,0,1,8,8v47.05518L284.42188,173.2666A7.95653,7.95653,0,0,1,280,166.11133ZM338.9707,285.126A7.89477,7.89477,0,0,1,332.82812,288H320V264h18.05029l2.64893,14.56836v.001A7.8941,7.8941,0,0,1,338.9707,285.126ZM208,288V232a8.00917,8.00917,0,0,1,8-8h80a8.00917,8.00917,0,0,1,8,8v56Zm96,16v25.0127A31.95275,31.95275,0,0,0,296,328H216a31.95275,31.95275,0,0,0-8,1.0127V304ZM192,264v24H179.17188a7.99956,7.99956,0,0,1-7.8711-9.43164L173.94971,264Zm40,216H216V384a8,8,0,0,1,16,0Zm32,0H248V392h16Zm32-88v88H280V384a8,8,0,0,1,16,0Zm-8-32a24.0384,24.0384,0,0,0-22.62378,16H264V360H248v16h-1.37622a23.98862,23.98862,0,0,0-42.54614-5.36719A15.97281,15.97281,0,0,1,216,344h80a15.97281,15.97281,0,0,1,11.92236,26.63281A23.99526,23.99526,0,0,0,288,360ZM408,480H312V387.69482a31.94542,31.94542,0,0,0,8-48.82666V304h88Zm0-192H392V256h16Zm48,192H424V304h16V288H424V240H376v48H355.45312a23.95448,23.95448,0,0,0,.98829-12.29395v.001l-11.13965-61.2666A24.13042,24.13042,0,0,0,336,199.47266V144a24.0275,24.0275,0,0,0-24-24H288v-8a32,32,0,0,0-64,0v8H200a24.0275,24.0275,0,0,0-24,24v55.4729a24.12833,24.12833,0,0,0-9.30176,14.96753l-11.13965,61.26562A23.95448,23.95448,0,0,0,156.54688,288H104V171.88184a39.73222,39.73222,0,0,1,11.71582-28.28321L116,143.31445l2.34277,2.34278a24.97109,24.97109,0,0,0,35.31446-35.31446L151.31445,108l6.34278-6.34277L146.34277,90.34277l-41.9414,41.94141A55.636,55.636,0,0,0,88,171.88184V288H72v16H88V480H56V117.30176L256,32.68652l200,84.61524ZM127.31445,132,140,119.31445l2.34277,2.34278a8.97,8.97,0,0,1-12.68554,12.68554Z"/><path d="M376,120a40,40,0,1,1,0,80,40.4807,40.4807,0,0,1-6.67578-.55371l-2.64844,15.7793A56.072,56.072,0,0,0,428.81152,178.665,56.00747,56.00747,0,0,0,338.665,118.26172L349.335,130.18359A39.92753,39.92753,0,0,1,376,120Z"/><rect height="16" width="16" x="248" y="248"/><polygon points="384 136 368 136 368 156.687 346.343 178.343 357.657 189.657 384 163.313 384 136"/></g></svg>