<?xml version="1.0" ?><svg id="Layer_1" style="enable-background:new 0 0 96 96;" version="1.1" viewBox="0 0 96 96" xml:space="preserve" xmlns="http://www.w3.org/2000/svg" xmlns:xlink="http://www.w3.org/1999/xlink"><style type="text/css">
	.st0{fill:#FFFFFF;}
</style><g><path d="M50,80.3l43-12.5V20H3v47.8l43,12.5C47,80.6,49,80.6,50,80.3z M75.5,50.5l-3-1.3c-2.3-1-4.6-2.9-4.6-6.3   c0-3.8,3.3-6.9,8.1-6.9c2.6,0,5.4,1.1,7.3,3.1l-2.6,3.3c-1.5-1.2-2.9-1.8-4.7-1.8c-1.8,0-2.9,0.8-2.9,2.1c0,1.4,1.5,1.9,3.5,2.7   l2.9,1.2c2.8,1.1,4.5,3,4.5,6.3c0,3.8-3.1,7.2-8.6,7.2c-3,0-6.1-1.1-8.4-3.3l2.9-3.6c1.6,1.4,3.7,2.4,5.6,2.4   c2.1,0,3.2-0.9,3.2-2.2C78.7,51.8,77.4,51.3,75.5,50.5z M57.7,50.5l-3-1.3c-2.3-1-4.6-2.9-4.6-6.3c0-3.8,3.4-6.9,8.1-6.9   c2.6,0,5.4,1.1,7.3,3.1L63,42.4c-1.5-1.2-2.9-1.8-4.7-1.8c-1.8,0-2.9,0.8-2.9,2.1c0,1.4,1.5,1.9,3.5,2.7l2.9,1.2   c2.8,1.1,4.5,3,4.5,6.3c0,3.8-3.1,7.2-8.6,7.2c-3,0-6.1-1.1-8.4-3.3l2.9-3.6c1.6,1.4,3.7,2.4,5.6,2.4c2.1,0,3.2-0.9,3.2-2.2   C61,51.8,59.7,51.3,57.7,50.5z M20.4,60c-3,0-6.1-1.1-8.4-3.3l2.9-3.6c1.6,1.4,3.7,2.4,5.6,2.4c2.1,0,3.2-0.9,3.2-2.2   c0-1.5-1.3-1.9-3.3-2.8l-3-1.3c-2.3-1-4.6-2.9-4.6-6.3c0-3.8,3.3-6.9,8.1-6.9c2.6,0,5.4,1.1,7.3,3.1l-2.6,3.3   c-1.5-1.2-2.9-1.8-4.7-1.8c-1.8,0-2.9,0.8-2.9,2.1c0,1.4,1.5,1.9,3.5,2.7l2.9,1.2c2.8,1.1,4.5,3,4.5,6.3C29,56.7,25.8,60,20.4,60z    M42.5,54h-6.9l-1.4,6h-5.2L36,36h6.2l7.1,24h-5.4L42.5,54z"/><path d="M51.1,84.2c-0.9,0.3-2,0.4-3.1,0.4c-1.1,0-2.2-0.1-3.1-0.4L3,72v6.6c0,1.3,1.1,2.7,2.4,3.1l40.3,10.7   c1.3,0.3,3.4,0.3,4.7,0l40.3-10.7c1.3-0.3,2.4-1.7,2.4-3.1V72L51.1,84.2z"/><path d="M93,16V5.4C93,4.1,91.9,3,90.6,3H50.4c-1.3,0-3.6,0-4.9,0H5.4C4.1,3,3,4.1,3,5.4V16H93z"/><path d="M39.1,40h-0.1c-0.6,3-1.1,5.4-1.8,7.7L36.6,50h4.8l-0.5-2.3C40.3,45.4,39.7,43,39.1,40z"/></g></svg>