<?xml version="1.0" encoding="UTF-8"?>
<svg xmlns="http://www.w3.org/2000/svg" xmlns:xlink="http://www.w3.org/1999/xlink" width="375pt" height="337.499995pt" viewBox="0 0 375 337.499995" version="1.2">
<g id="surface1">
<path style=" stroke:none;fill-rule:nonzero;fill:rgb(43.528748%,65.879822%,86.268616%);fill-opacity:1;" d="M 148.015625 50.667969 C 145.671875 50.667969 143.328125 50.722656 140.988281 50.839844 C 138.648438 50.953125 136.3125 51.125 133.980469 51.355469 C 131.648438 51.585938 129.324219 51.871094 127.007812 52.214844 C 124.691406 52.558594 122.382812 52.960938 120.085938 53.417969 C 117.785156 53.875 115.5 54.386719 113.226562 54.957031 C 110.957031 55.527344 108.699219 56.152344 106.457031 56.832031 C 104.214844 57.511719 101.988281 58.246094 99.785156 59.035156 C 97.578125 59.824219 95.390625 60.667969 93.226562 61.566406 C 91.0625 62.460938 88.921875 63.410156 86.804688 64.414062 C 84.683594 65.414062 82.59375 66.46875 80.527344 67.570312 C 78.460938 68.675781 76.421875 69.832031 74.414062 71.035156 C 72.402344 72.238281 70.421875 73.492188 68.476562 74.796875 C 66.527344 76.097656 64.613281 77.445312 62.730469 78.839844 C 60.847656 80.238281 59 81.679688 57.191406 83.164062 C 55.378906 84.652344 53.605469 86.179688 51.871094 87.753906 C 50.132812 89.328125 48.4375 90.941406 46.78125 92.601562 C 45.125 94.257812 43.507812 95.953125 41.933594 97.6875 C 40.363281 99.425781 38.832031 101.199219 37.34375 103.011719 C 35.859375 104.820312 34.417969 106.667969 33.023438 108.550781 C 31.625 110.429688 30.277344 112.347656 28.976562 114.292969 C 27.675781 116.242188 26.421875 118.222656 25.214844 120.230469 C 24.011719 122.242188 22.855469 124.277344 21.753906 126.34375 C 20.648438 128.410156 19.59375 130.503906 18.59375 132.621094 C 17.589844 134.742188 16.640625 136.882812 15.746094 139.046875 C 14.847656 141.210938 14.007812 143.394531 13.21875 145.601562 C 12.425781 147.808594 11.691406 150.03125 11.011719 152.273438 C 10.332031 154.515625 9.707031 156.773438 9.136719 159.046875 C 8.570312 161.320312 8.054688 163.605469 7.597656 165.902344 C 7.140625 168.203125 6.742188 170.507812 6.398438 172.828125 C 6.054688 175.144531 5.765625 177.46875 5.539062 179.800781 C 5.308594 182.132812 5.136719 184.46875 5.019531 186.808594 C 4.90625 189.148438 4.847656 191.492188 4.847656 193.832031 C 4.847656 196.175781 4.90625 198.519531 5.019531 200.859375 C 5.136719 203.199219 5.308594 205.535156 5.539062 207.867188 C 5.765625 210.199219 6.054688 212.523438 6.398438 214.839844 C 6.742188 217.160156 7.140625 219.464844 7.597656 221.765625 C 8.054688 224.0625 8.570312 226.347656 9.136719 228.621094 C 9.707031 230.894531 10.332031 233.152344 11.011719 235.394531 C 11.691406 237.636719 12.425781 239.859375 13.21875 242.066406 C 14.007812 244.269531 14.847656 246.457031 15.746094 248.621094 C 16.640625 250.785156 17.589844 252.925781 18.59375 255.046875 C 19.59375 257.164062 20.648438 259.257812 21.753906 261.324219 C 22.855469 263.386719 24.011719 265.425781 25.214844 267.4375 C 26.421875 269.445312 27.675781 271.425781 28.976562 273.375 C 30.277344 275.320312 31.625 277.234375 33.023438 279.117188 C 34.417969 281 35.859375 282.847656 37.34375 284.65625 C 38.832031 286.46875 40.363281 288.242188 41.933594 289.980469 C 43.507812 291.714844 45.125 293.410156 46.78125 295.066406 C 48.4375 296.726562 50.132812 298.339844 51.871094 299.914062 C 53.605469 301.488281 55.378906 303.015625 57.191406 304.503906 C 59 305.988281 60.847656 307.429688 62.730469 308.828125 C 64.613281 310.222656 66.527344 311.570312 68.476562 312.871094 C 70.421875 314.175781 72.402344 315.425781 74.414062 316.632812 C 76.421875 317.835938 78.460938 318.992188 80.527344 320.097656 C 82.59375 321.199219 84.683594 322.253906 86.804688 323.253906 C 88.921875 324.257812 91.0625 325.207031 93.226562 326.101562 C 95.390625 327 97.578125 327.84375 99.785156 328.632812 C 101.988281 329.421875 104.214844 330.15625 106.457031 330.835938 C 108.699219 331.515625 110.957031 332.140625 113.226562 332.710938 C 115.5 333.28125 117.785156 333.792969 120.085938 334.25 C 122.382812 334.707031 124.691406 335.105469 127.007812 335.449219 C 129.324219 335.796875 131.648438 336.082031 133.980469 336.3125 C 136.3125 336.539062 138.648438 336.714844 140.988281 336.828125 C 143.328125 336.941406 145.671875 337 148.015625 337 C 150.359375 337 152.699219 336.941406 155.039062 336.828125 C 157.378906 336.714844 159.714844 336.539062 162.046875 336.3125 C 164.378906 336.082031 166.703125 335.796875 169.023438 335.449219 C 171.339844 335.105469 173.648438 334.707031 175.945312 334.25 C 178.242188 333.792969 180.527344 333.28125 182.800781 332.710938 C 185.074219 332.140625 187.332031 331.515625 189.574219 330.835938 C 191.816406 330.15625 194.039062 329.421875 196.246094 328.632812 C 198.453125 327.84375 200.636719 327 202.800781 326.101562 C 204.96875 325.207031 207.109375 324.257812 209.226562 323.253906 C 211.34375 322.253906 213.4375 321.199219 215.503906 320.097656 C 217.570312 318.992188 219.609375 317.835938 221.617188 316.632812 C 223.625 315.425781 225.605469 314.175781 227.554688 312.871094 C 229.503906 311.570312 231.417969 310.222656 233.300781 308.828125 C 235.179688 307.429688 237.027344 305.988281 238.839844 304.503906 C 240.648438 303.015625 242.421875 301.488281 244.160156 299.914062 C 245.894531 298.339844 247.59375 296.726562 249.25 295.066406 C 250.90625 293.410156 252.519531 291.714844 254.09375 289.980469 C 255.667969 288.242188 257.199219 286.46875 258.683594 284.65625 C 260.171875 282.847656 261.613281 281 263.007812 279.117188 C 264.402344 277.234375 265.75 275.320312 267.054688 273.375 C 268.355469 271.425781 269.609375 269.445312 270.8125 267.4375 C 272.015625 265.425781 273.171875 263.386719 274.277344 261.320312 C 275.382812 259.257812 276.433594 257.164062 277.4375 255.046875 C 278.4375 252.925781 279.386719 250.785156 280.285156 248.621094 C 281.179688 246.457031 282.023438 244.269531 282.8125 242.066406 C 283.601562 239.859375 284.335938 237.636719 285.015625 235.394531 C 285.695312 233.152344 286.320312 230.894531 286.890625 228.621094 C 287.460938 226.347656 287.972656 224.0625 288.429688 221.765625 C 288.886719 219.464844 289.289062 217.160156 289.632812 214.839844 C 289.976562 212.523438 290.261719 210.199219 290.492188 207.867188 C 290.722656 205.535156 290.894531 203.199219 291.007812 200.859375 C 291.125 198.519531 291.179688 196.175781 291.179688 193.832031 C 291.179688 191.492188 291.125 189.148438 291.007812 186.808594 C 290.894531 184.46875 290.722656 182.132812 290.492188 179.800781 C 290.261719 177.46875 289.976562 175.144531 289.632812 172.828125 C 289.289062 170.507812 288.886719 168.203125 288.429688 165.902344 C 287.972656 163.605469 287.460938 161.320312 286.890625 159.046875 C 286.320312 156.773438 285.695312 154.515625 285.015625 152.273438 C 284.335938 150.03125 283.601562 147.808594 282.8125 145.601562 C 282.023438 143.394531 281.179688 141.210938 280.285156 139.046875 C 279.386719 136.882812 278.4375 134.742188 277.4375 132.621094 C 276.433594 130.503906 275.382812 128.410156 274.277344 126.34375 C 273.171875 124.277344 272.015625 122.242188 270.8125 120.230469 C 269.609375 118.222656 268.355469 116.242188 267.054688 114.292969 C 265.75 112.347656 264.402344 110.429688 263.007812 108.550781 C 261.613281 106.667969 260.171875 104.820312 258.683594 103.011719 C 257.199219 101.199219 255.667969 99.425781 254.09375 97.6875 C 252.519531 95.953125 250.90625 94.257812 249.25 92.601562 C 247.59375 90.941406 245.894531 89.328125 244.160156 87.753906 C 242.421875 86.179688 240.648438 84.652344 238.839844 83.164062 C 237.027344 81.679688 235.179688 80.238281 233.300781 78.839844 C 231.417969 77.445312 229.503906 76.097656 227.554688 74.796875 C 225.605469 73.492188 223.625 72.238281 221.617188 71.035156 C 219.605469 69.832031 217.570312 68.675781 215.503906 67.570312 C 213.4375 66.46875 211.34375 65.414062 209.226562 64.414062 C 207.109375 63.410156 204.96875 62.460938 202.800781 61.566406 C 200.636719 60.667969 198.453125 59.824219 196.246094 59.035156 C 194.039062 58.246094 191.816406 57.511719 189.574219 56.832031 C 187.332031 56.152344 185.074219 55.527344 182.800781 54.957031 C 180.527344 54.386719 178.242188 53.875 175.945312 53.417969 C 173.648438 52.960938 171.339844 52.558594 169.023438 52.214844 C 166.703125 51.871094 164.378906 51.585938 162.046875 51.355469 C 159.714844 51.125 157.378906 50.953125 155.039062 50.839844 C 152.699219 50.722656 150.359375 50.667969 148.015625 50.667969 Z M 148.015625 50.667969 "/>
<path style=" stroke:none;fill-rule:nonzero;fill:rgb(85.099792%,28.239441%,61.178589%);fill-opacity:1;" d="M 251.050781 0 C 249.101562 0 247.152344 0.046875 245.207031 0.144531 C 243.257812 0.238281 241.316406 0.382812 239.375 0.574219 C 237.4375 0.765625 235.503906 1.003906 233.574219 1.289062 C 231.648438 1.574219 229.726562 1.910156 227.816406 2.289062 C 225.902344 2.667969 224 3.097656 222.109375 3.570312 C 220.21875 4.042969 218.34375 4.5625 216.476562 5.128906 C 214.613281 5.695312 212.761719 6.304688 210.925781 6.960938 C 209.089844 7.617188 207.273438 8.320312 205.472656 9.066406 C 203.671875 9.8125 201.890625 10.601562 200.128906 11.433594 C 198.367188 12.269531 196.625 13.144531 194.90625 14.0625 C 193.1875 14.980469 191.492188 15.941406 189.820312 16.945312 C 188.148438 17.945312 186.5 18.988281 184.882812 20.070312 C 183.261719 21.15625 181.667969 22.277344 180.101562 23.4375 C 178.535156 24.597656 177 25.796875 175.492188 27.035156 C 173.988281 28.269531 172.511719 29.542969 171.066406 30.851562 C 169.621094 32.164062 168.210938 33.503906 166.832031 34.882812 C 165.453125 36.261719 164.109375 37.671875 162.800781 39.117188 C 161.492188 40.5625 160.21875 42.039062 158.984375 43.542969 C 157.746094 45.050781 156.546875 46.585938 155.386719 48.152344 C 154.226562 49.71875 153.105469 51.3125 152.019531 52.933594 C 150.9375 54.554688 149.894531 56.199219 148.894531 57.871094 C 147.890625 59.542969 146.929688 61.238281 146.011719 62.957031 C 145.09375 64.675781 144.21875 66.417969 143.382812 68.179688 C 142.550781 69.941406 141.761719 71.722656 141.015625 73.523438 C 140.269531 75.324219 139.566406 77.140625 138.910156 78.976562 C 138.253906 80.8125 137.644531 82.664062 137.078125 84.527344 C 136.511719 86.394531 135.992188 88.273438 135.519531 90.164062 C 135.042969 92.054688 134.617188 93.953125 134.238281 95.867188 C 133.855469 97.777344 133.523438 99.699219 133.238281 101.625 C 132.953125 103.554688 132.714844 105.488281 132.523438 107.425781 C 132.332031 109.367188 132.1875 111.3125 132.09375 113.257812 C 131.996094 115.203125 131.949219 117.152344 131.949219 119.101562 C 131.949219 121.050781 131.996094 123 132.09375 124.945312 C 132.1875 126.890625 132.332031 128.835938 132.523438 130.777344 C 132.714844 132.714844 132.953125 134.648438 133.238281 136.578125 C 133.523438 138.503906 133.855469 140.425781 134.238281 142.335938 C 134.617188 144.25 135.042969 146.148438 135.519531 148.039062 C 135.992188 149.933594 136.511719 151.808594 137.078125 153.675781 C 137.644531 155.539062 138.253906 157.390625 138.910156 159.226562 C 139.566406 161.0625 140.269531 162.878906 141.015625 164.679688 C 141.761719 166.480469 142.550781 168.261719 143.382812 170.023438 C 144.21875 171.785156 145.09375 173.527344 146.011719 175.246094 C 146.929688 176.964844 147.890625 178.660156 148.894531 180.332031 C 149.894531 182.003906 150.9375 183.648438 152.019531 185.269531 C 153.105469 186.890625 154.226562 188.484375 155.386719 190.050781 C 156.546875 191.617188 157.746094 193.152344 158.984375 194.660156 C 160.21875 196.164062 161.492188 197.640625 162.800781 199.085938 C 164.109375 200.53125 165.453125 201.941406 166.832031 203.320312 C 168.210938 204.699219 169.621094 206.042969 171.066406 207.351562 C 172.511719 208.660156 173.988281 209.933594 175.492188 211.167969 C 177 212.40625 178.535156 213.605469 180.101562 214.765625 C 181.667969 215.925781 183.261719 217.046875 184.882812 218.132812 C 186.5 219.214844 188.148438 220.257812 189.820312 221.257812 C 191.492188 222.261719 193.1875 223.222656 194.90625 224.140625 C 196.625 225.058594 198.367188 225.933594 200.128906 226.769531 C 201.890625 227.601562 203.671875 228.390625 205.472656 229.136719 C 207.273438 229.882812 209.089844 230.585938 210.925781 231.242188 C 212.761719 231.898438 214.613281 232.507812 216.476562 233.074219 C 218.34375 233.640625 220.21875 234.160156 222.109375 234.632812 C 224 235.109375 225.902344 235.535156 227.816406 235.914062 C 229.726562 236.296875 231.648438 236.628906 233.574219 236.914062 C 235.503906 237.199219 237.4375 237.4375 239.375 237.628906 C 241.316406 237.820312 243.257812 237.964844 245.207031 238.058594 C 247.152344 238.15625 249.101562 238.203125 251.050781 238.203125 C 253 238.203125 254.949219 238.15625 256.894531 238.058594 C 258.839844 237.964844 260.785156 237.820312 262.722656 237.628906 C 264.664062 237.4375 266.597656 237.199219 268.527344 236.914062 C 270.453125 236.628906 272.375 236.296875 274.285156 235.914062 C 276.199219 235.535156 278.097656 235.109375 279.988281 234.632812 C 281.878906 234.160156 283.757812 233.640625 285.625 233.074219 C 287.488281 232.507812 289.339844 231.898438 291.175781 231.242188 C 293.011719 230.585938 294.828125 229.882812 296.628906 229.136719 C 298.429688 228.390625 300.210938 227.601562 301.972656 226.769531 C 303.734375 225.933594 305.476562 225.058594 307.195312 224.140625 C 308.914062 223.222656 310.609375 222.261719 312.28125 221.257812 C 313.953125 220.257812 315.597656 219.214844 317.21875 218.132812 C 318.839844 217.046875 320.433594 215.925781 322 214.765625 C 323.566406 213.605469 325.101562 212.40625 326.609375 211.167969 C 328.113281 209.933594 329.589844 208.660156 331.035156 207.351562 C 332.476562 206.042969 333.890625 204.699219 335.269531 203.320312 C 336.644531 201.941406 337.988281 200.53125 339.300781 199.085938 C 340.609375 197.640625 341.878906 196.164062 343.117188 194.660156 C 344.355469 193.152344 345.550781 191.617188 346.714844 190.050781 C 347.875 188.484375 348.996094 186.890625 350.078125 185.269531 C 351.164062 183.648438 352.207031 182.003906 353.207031 180.332031 C 354.210938 178.660156 355.167969 176.964844 356.089844 175.246094 C 357.007812 173.527344 357.882812 171.785156 358.71875 170.023438 C 359.550781 168.261719 360.339844 166.480469 361.085938 164.679688 C 361.832031 162.878906 362.535156 161.0625 363.191406 159.226562 C 363.847656 157.390625 364.457031 155.539062 365.023438 153.675781 C 365.589844 151.808594 366.109375 149.933594 366.582031 148.039062 C 367.054688 146.148438 367.484375 144.25 367.863281 142.335938 C 368.242188 140.425781 368.578125 138.503906 368.863281 136.578125 C 369.148438 134.648438 369.386719 132.714844 369.578125 130.777344 C 369.769531 128.835938 369.914062 126.890625 370.007812 124.945312 C 370.105469 123 370.152344 121.050781 370.152344 119.101562 C 370.152344 117.152344 370.105469 115.203125 370.007812 113.257812 C 369.914062 111.3125 369.769531 109.367188 369.578125 107.425781 C 369.386719 105.488281 369.148438 103.554688 368.863281 101.625 C 368.578125 99.699219 368.242188 97.777344 367.863281 95.867188 C 367.484375 93.953125 367.054688 92.054688 366.582031 90.164062 C 366.109375 88.273438 365.589844 86.394531 365.023438 84.527344 C 364.457031 82.664062 363.847656 80.8125 363.191406 78.976562 C 362.53125 77.140625 361.832031 75.324219 361.085938 73.523438 C 360.339844 71.722656 359.550781 69.941406 358.71875 68.179688 C 357.882812 66.417969 357.007812 64.675781 356.089844 62.957031 C 355.167969 61.238281 354.210938 59.542969 353.207031 57.871094 C 352.207031 56.199219 351.164062 54.554688 350.078125 52.933594 C 348.996094 51.3125 347.875 49.71875 346.714844 48.152344 C 345.550781 46.585938 344.355469 45.050781 343.117188 43.542969 C 341.878906 42.039062 340.609375 40.5625 339.300781 39.117188 C 337.988281 37.671875 336.644531 36.261719 335.269531 34.882812 C 333.890625 33.503906 332.476562 32.164062 331.035156 30.851562 C 329.589844 29.542969 328.113281 28.269531 326.609375 27.035156 C 325.101562 25.796875 323.566406 24.597656 322 23.4375 C 320.433594 22.277344 318.839844 21.15625 317.21875 20.070312 C 315.597656 18.988281 313.953125 17.945312 312.28125 16.945312 C 310.609375 15.941406 308.914062 14.980469 307.195312 14.0625 C 305.476562 13.144531 303.734375 12.269531 301.972656 11.433594 C 300.210938 10.601562 298.429688 9.8125 296.628906 9.066406 C 294.828125 8.320312 293.011719 7.617188 291.175781 6.960938 C 289.339844 6.304688 287.488281 5.695312 285.625 5.128906 C 283.757812 4.5625 281.878906 4.042969 279.988281 3.570312 C 278.097656 3.097656 276.199219 2.667969 274.285156 2.289062 C 272.375 1.910156 270.453125 1.574219 268.527344 1.289062 C 266.597656 1.003906 264.664062 0.765625 262.722656 0.574219 C 260.785156 0.382812 258.839844 0.238281 256.894531 0.144531 C 254.949219 0.046875 253 0 251.050781 0 Z M 251.050781 0 "/>
</g>
</svg>
