<?xml version="1.0" encoding="UTF-8"?>
<svg width="22.641mm" height="16.076mm" version="1.1" viewBox="0 0 80.223025 56.960806" xmlns="http://www.w3.org/2000/svg">
 <g transform="translate(-95.166 -362.36)">
  <rect x="101.62" y="362.36" width="66.346" height="42.721" rx="2" ry="2" fill="#ccc"/>
  <rect x="105.18" y="366.24" width="59.226" height="34.63" rx="2" ry="2" fill="#fff"/>
  <path d="m103.3 405.73h63.965c1.108 0 1.7805 1.0456 2.3433 2l5.6567 9.5929c0.5628 0.95442-0.892 2-2 2h-75.965c-1.108 0-2.5876-1.0606-2-2l6-9.5929c0.58755-0.93939 0.892-2 2-2z" fill="#ccc"/>
  <g fill="#fff" fill-rule="evenodd" stroke="#ccc" stroke-width="1px">
   <path d="m101.51 415.59 1.5069-2.7826h5.1817l-1.2729 2.7826z"/>
   <path d="m103.02 412.8 1.5735-2.9057h4.9374l-1.3292 2.9057z"/>
   <path d="m104.59 409.9 1.2033-2.2219h4.7506l-1.0164 2.2219z"/>
   <path d="m110.54 407.68h4.9599l-0.82143 2.2219h-5.1549z"/>
   <path d="m109.53 409.9-1.3292 2.9057h5.41l1.0742-2.9057z"/>
   <path d="m108.2 412.8-1.2729 2.7826h5.6542l1.0287-2.7826z"/>
   <path d="m112.58 415.59h5.7148l0.78182-2.7826h-5.468z"/>
   <path d="m113.61 412.8 1.0742-2.9057h5.2102l-0.81641 2.9057z"/>
   <path d="m114.68 409.9 0.82143-2.2219h5.0131l-0.62431 2.2219h-5.2102z"/>
   <path d="m120.52 407.68h5.2083l-0.4195 2.2219h-5.4132z"/>
   <path d="m119.89 409.9-0.81641 2.9057h5.681l0.54858-2.9057z"/>
   <path d="m118.29 415.59 0.78182-2.7826h30.852l0.61106 2.7826z"/>
   <path d="m124.76 412.8 0.54858-2.9057h5.5372l-0.27462 2.9057z"/>
   <path d="m125.31 409.9 0.4195-2.2219h5.3277l-0.21 2.2219z"/>
   <path d="m130.57 412.8h5.8253v-2.9057h-5.5506l-0.27462 2.9057z"/>
   <path d="m130.84 409.9 0.21-2.2219h5.3406v2.2219h-5.5506z"/>
   <path d="m136.39 407.68h6.2787l0.24689 2.2219h-6.5256z"/>
   <path d="m136.39 409.9v2.9057h6.8484l-0.32286-2.9057z"/>
   <path d="m142.67 407.68h6.1301l0.48793 2.2219h-6.3711z"/>
   <path d="m142.92 409.9 0.32286 2.9057h6.6864l-0.63808-2.9057z"/>
   <path d="m149.93 412.8 0.61106 2.7826h6.5614l-0.89448-2.7826z"/>
   <path d="m149.93 412.8-0.63808-2.9057h5.9821l0.93405 2.9057z"/>
   <path d="m149.29 409.9-0.48793-2.2219h5.7557l0.71426 2.2219z"/>
   <path d="m154.56 407.68h5.6459l0.93626 2.2219h-5.8679z"/>
   <path d="m155.27 409.9 0.93405 2.9057h6.1582l-1.2244-2.9057z"/>
   <path d="m156.21 412.8 0.89448 2.7826h6.4362l-1.1725-2.7826z"/>
   <path d="m163.54 415.59h6.0271l-2.9291-5.6882h-5.4949z"/>
   <path d="m161.14 409.9-0.93626-2.2219h5.287l1.1442 2.2219z"/>
  </g>
 </g>
</svg>
