<?xml version="1.0" encoding="UTF-8"?>
<svg xmlns="http://www.w3.org/2000/svg" xmlns:xlink="http://www.w3.org/1999/xlink" width="600pt" height="487.499991pt" viewBox="0 0 600 487.499991" version="1.2">
<g id="surface1">
<path style=" stroke:none;fill-rule:nonzero;fill:rgb(47.059631%,84.709167%,85.488892%);fill-opacity:1;" d="M 174.882812 149.269531 C 172.121094 149.269531 169.355469 149.335938 166.597656 149.472656 C 163.835938 149.605469 161.082031 149.808594 158.332031 150.082031 C 155.582031 150.351562 152.839844 150.691406 150.105469 151.097656 C 147.371094 151.5 144.648438 151.972656 141.9375 152.511719 C 139.226562 153.050781 136.53125 153.65625 133.851562 154.328125 C 131.171875 155 128.507812 155.738281 125.863281 156.539062 C 123.21875 157.339844 120.59375 158.207031 117.992188 159.140625 C 115.390625 160.070312 112.8125 161.066406 110.261719 162.121094 C 107.707031 163.179688 105.179688 164.300781 102.683594 165.480469 C 100.183594 166.664062 97.71875 167.90625 95.28125 169.207031 C 92.84375 170.511719 90.4375 171.871094 88.066406 173.292969 C 85.699219 174.714844 83.363281 176.191406 81.066406 177.726562 C 78.769531 179.261719 76.507812 180.851562 74.289062 182.5 C 72.070312 184.144531 69.890625 185.847656 67.753906 187.597656 C 65.617188 189.351562 63.527344 191.15625 61.480469 193.011719 C 59.429688 194.867188 57.429688 196.773438 55.476562 198.726562 C 53.523438 200.683594 51.617188 202.683594 49.761719 204.730469 C 47.90625 206.777344 46.101562 208.871094 44.347656 211.007812 C 42.59375 213.144531 40.894531 215.320312 39.25 217.539062 C 37.601562 219.761719 36.011719 222.019531 34.476562 224.316406 C 32.941406 226.613281 31.460938 228.949219 30.042969 231.320312 C 28.621094 233.691406 27.257812 236.09375 25.957031 238.53125 C 24.652344 240.96875 23.410156 243.4375 22.230469 245.933594 C 21.046875 248.433594 19.929688 250.957031 18.871094 253.511719 C 17.8125 256.066406 16.820312 258.644531 15.886719 261.246094 C 14.957031 263.847656 14.089844 266.46875 13.289062 269.113281 C 12.484375 271.757812 11.75 274.421875 11.078125 277.101562 C 10.40625 279.785156 9.800781 282.480469 9.261719 285.191406 C 8.722656 287.902344 8.25 290.621094 7.84375 293.355469 C 7.4375 296.089844 7.101562 298.832031 6.828125 301.582031 C 6.558594 304.332031 6.355469 307.089844 6.21875 309.847656 C 6.085938 312.609375 6.015625 315.371094 6.015625 318.132812 C 6.015625 320.898438 6.085938 323.660156 6.21875 326.421875 C 6.355469 329.179688 6.558594 331.9375 6.828125 334.6875 C 7.101562 337.4375 7.4375 340.179688 7.84375 342.914062 C 8.25 345.644531 8.722656 348.367188 9.261719 351.078125 C 9.800781 353.789062 10.40625 356.484375 11.078125 359.164062 C 11.75 361.847656 12.484375 364.507812 13.289062 367.152344 C 14.089844 369.796875 14.957031 372.421875 15.886719 375.023438 C 16.820312 377.625 17.8125 380.203125 18.871094 382.757812 C 19.929688 385.308594 21.046875 387.835938 22.230469 390.332031 C 23.410156 392.832031 24.652344 395.300781 25.957031 397.738281 C 27.257812 400.175781 28.621094 402.578125 30.042969 404.949219 C 31.460938 407.320312 32.941406 409.652344 34.476562 411.953125 C 36.011719 414.25 37.601562 416.507812 39.25 418.726562 C 40.894531 420.949219 42.59375 423.125 44.347656 425.261719 C 46.101562 427.398438 47.90625 429.488281 49.761719 431.539062 C 51.617188 433.585938 53.523438 435.585938 55.476562 437.539062 C 57.429688 439.496094 59.429688 441.398438 61.480469 443.253906 C 63.527344 445.113281 65.617188 446.917969 67.753906 448.667969 C 69.890625 450.421875 72.070312 452.121094 74.289062 453.769531 C 76.507812 455.414062 78.769531 457.007812 81.066406 458.542969 C 83.363281 460.078125 85.699219 461.554688 88.066406 462.976562 C 90.4375 464.394531 92.84375 465.757812 95.28125 467.0625 C 97.71875 468.363281 100.183594 469.605469 102.683594 470.789062 C 105.179688 471.96875 107.707031 473.089844 110.261719 474.144531 C 112.8125 475.203125 115.390625 476.199219 117.992188 477.128906 C 120.59375 478.058594 123.21875 478.925781 125.863281 479.730469 C 128.507812 480.53125 131.171875 481.269531 133.851562 481.941406 C 136.53125 482.609375 139.226562 483.214844 141.9375 483.753906 C 144.648438 484.292969 147.371094 484.765625 150.105469 485.171875 C 152.839844 485.578125 155.582031 485.917969 158.332031 486.1875 C 161.082031 486.457031 163.835938 486.660156 166.597656 486.796875 C 169.355469 486.933594 172.121094 487 174.882812 487 C 177.644531 487 180.410156 486.933594 183.167969 486.796875 C 185.929688 486.660156 188.683594 486.457031 191.433594 486.1875 C 194.183594 485.917969 196.925781 485.578125 199.660156 485.171875 C 202.394531 484.765625 205.117188 484.292969 207.828125 483.753906 C 210.539062 483.214844 213.234375 482.609375 215.914062 481.941406 C 218.59375 481.269531 221.257812 480.53125 223.902344 479.730469 C 226.546875 478.925781 229.171875 478.058594 231.773438 477.128906 C 234.375 476.199219 236.953125 475.203125 239.503906 474.144531 C 242.058594 473.089844 244.585938 471.96875 247.082031 470.789062 C 249.582031 469.605469 252.046875 468.363281 254.484375 467.0625 C 256.921875 465.757812 259.328125 464.394531 261.699219 462.976562 C 264.066406 461.554688 266.402344 460.078125 268.699219 458.542969 C 270.996094 457.007812 273.257812 455.414062 275.476562 453.769531 C 277.695312 452.121094 279.875 450.421875 282.011719 448.667969 C 284.148438 446.917969 286.238281 445.113281 288.285156 443.253906 C 290.335938 441.398438 292.335938 439.496094 294.289062 437.539062 C 296.242188 435.585938 298.148438 433.585938 300.003906 431.539062 C 301.859375 429.488281 303.664062 427.398438 305.417969 425.261719 C 307.171875 423.125 308.871094 420.949219 310.515625 418.726562 C 312.164062 416.507812 313.753906 414.25 315.289062 411.953125 C 316.824219 409.652344 318.304688 407.320312 319.722656 404.949219 C 321.144531 402.578125 322.507812 400.175781 323.808594 397.738281 C 325.113281 395.300781 326.355469 392.832031 327.535156 390.332031 C 328.71875 387.835938 329.835938 385.308594 330.894531 382.757812 C 331.953125 380.203125 332.945312 377.625 333.878906 375.023438 C 334.808594 372.421875 335.675781 369.796875 336.476562 367.152344 C 337.28125 364.507812 338.015625 361.847656 338.6875 359.164062 C 339.359375 356.484375 339.964844 353.789062 340.503906 351.078125 C 341.042969 348.367188 341.515625 345.644531 341.921875 342.914062 C 342.328125 340.179688 342.664062 337.4375 342.9375 334.6875 C 343.207031 331.9375 343.410156 329.179688 343.546875 326.421875 C 343.679688 323.660156 343.75 320.898438 343.75 318.132812 C 343.75 315.371094 343.679688 312.609375 343.546875 309.847656 C 343.410156 307.089844 343.207031 304.332031 342.9375 301.582031 C 342.664062 298.832031 342.328125 296.089844 341.921875 293.355469 C 341.515625 290.621094 341.042969 287.902344 340.503906 285.191406 C 339.964844 282.480469 339.359375 279.785156 338.6875 277.101562 C 338.015625 274.421875 337.28125 271.757812 336.476562 269.113281 C 335.675781 266.46875 334.808594 263.847656 333.878906 261.246094 C 332.945312 258.644531 331.953125 256.066406 330.894531 253.511719 C 329.835938 250.957031 328.71875 248.433594 327.535156 245.933594 C 326.355469 243.4375 325.113281 240.96875 323.808594 238.53125 C 322.507812 236.09375 321.144531 233.691406 319.722656 231.320312 C 318.304688 228.949219 316.824219 226.613281 315.289062 224.316406 C 313.753906 222.019531 312.164062 219.761719 310.515625 217.539062 C 308.871094 215.320312 307.171875 213.144531 305.417969 211.007812 C 303.664062 208.871094 301.859375 206.777344 300.003906 204.730469 C 298.148438 202.683594 296.242188 200.683594 294.289062 198.726562 C 292.335938 196.773438 290.335938 194.867188 288.285156 193.011719 C 286.238281 191.15625 284.148438 189.351562 282.011719 187.597656 C 279.875 185.847656 277.695312 184.144531 275.476562 182.5 C 273.257812 180.851562 270.996094 179.261719 268.699219 177.726562 C 266.402344 176.191406 264.066406 174.714844 261.699219 173.292969 C 259.328125 171.871094 256.921875 170.511719 254.484375 169.207031 C 252.046875 167.90625 249.582031 166.664062 247.082031 165.480469 C 244.585938 164.300781 242.058594 163.179688 239.503906 162.121094 C 236.953125 161.066406 234.375 160.070312 231.773438 159.140625 C 229.171875 158.207031 226.546875 157.339844 223.902344 156.539062 C 221.257812 155.738281 218.59375 155 215.914062 154.328125 C 213.234375 153.65625 210.539062 153.050781 207.828125 152.511719 C 205.117188 151.972656 202.394531 151.5 199.660156 151.097656 C 196.925781 150.691406 194.183594 150.351562 191.433594 150.082031 C 188.683594 149.808594 185.929688 149.605469 183.167969 149.472656 C 180.410156 149.335938 177.644531 149.269531 174.882812 149.269531 Z M 174.882812 149.269531 "/>
<path style=" stroke:none;fill-rule:nonzero;fill:rgb(96.078491%,74.119568%,77.648926%);fill-opacity:1;" d="M 203.304688 53.703125 C 200.539062 53.703125 197.777344 53.773438 195.019531 53.910156 C 192.257812 54.042969 189.503906 54.246094 186.75 54.519531 C 184 54.789062 181.257812 55.128906 178.527344 55.53125 C 175.792969 55.9375 173.070312 56.410156 170.359375 56.949219 C 167.648438 57.488281 164.953125 58.09375 162.273438 58.765625 C 159.589844 59.4375 156.929688 60.175781 154.285156 60.976562 C 151.640625 61.777344 149.015625 62.644531 146.414062 63.574219 C 143.8125 64.507812 141.234375 65.5 138.679688 66.558594 C 136.128906 67.617188 133.601562 68.734375 131.105469 69.917969 C 128.605469 71.097656 126.136719 72.339844 123.699219 73.644531 C 121.261719 74.945312 118.859375 76.308594 116.488281 77.730469 C 114.117188 79.152344 111.785156 80.628906 109.488281 82.164062 C 107.1875 83.699219 104.929688 85.289062 102.710938 86.9375 C 100.492188 88.582031 98.3125 90.28125 96.175781 92.035156 C 94.039062 93.789062 91.949219 95.59375 89.898438 97.449219 C 87.851562 99.304688 85.851562 101.210938 83.898438 103.164062 C 81.941406 105.117188 80.039062 107.121094 78.183594 109.167969 C 76.324219 111.214844 74.519531 113.308594 72.769531 115.445312 C 71.015625 117.578125 69.316406 119.757812 67.667969 121.976562 C 66.023438 124.195312 64.433594 126.457031 62.894531 128.753906 C 61.359375 131.050781 59.882812 133.386719 58.460938 135.757812 C 57.042969 138.125 55.679688 140.53125 54.375 142.96875 C 53.074219 145.40625 51.832031 147.875 50.648438 150.371094 C 49.46875 152.871094 48.347656 155.394531 47.292969 157.949219 C 46.234375 160.5 45.238281 163.078125 44.308594 165.683594 C 43.378906 168.285156 42.511719 170.90625 41.707031 173.550781 C 40.90625 176.195312 40.167969 178.859375 39.5 181.539062 C 38.828125 184.21875 38.222656 186.917969 37.683594 189.625 C 37.144531 192.335938 36.671875 195.058594 36.265625 197.792969 C 35.859375 200.527344 35.519531 203.269531 35.25 206.019531 C 34.980469 208.769531 34.777344 211.523438 34.640625 214.285156 C 34.503906 217.046875 34.4375 219.808594 34.4375 222.570312 C 34.4375 225.335938 34.503906 228.097656 34.640625 230.855469 C 34.777344 233.617188 34.980469 236.371094 35.25 239.121094 C 35.519531 241.875 35.859375 244.613281 36.265625 247.347656 C 36.671875 250.082031 37.144531 252.804688 37.683594 255.515625 C 38.222656 258.226562 38.828125 260.921875 39.5 263.601562 C 40.167969 266.28125 40.90625 268.945312 41.707031 271.589844 C 42.511719 274.234375 43.378906 276.859375 44.308594 279.460938 C 45.238281 282.0625 46.234375 284.640625 47.292969 287.191406 C 48.347656 289.746094 49.46875 292.273438 50.648438 294.769531 C 51.832031 297.269531 53.074219 299.738281 54.375 302.175781 C 55.679688 304.609375 57.042969 307.015625 58.460938 309.386719 C 59.882812 311.757812 61.359375 314.089844 62.894531 316.386719 C 64.433594 318.6875 66.023438 320.945312 67.667969 323.164062 C 69.316406 325.382812 71.015625 327.5625 72.769531 329.699219 C 74.519531 331.835938 76.324219 333.925781 78.183594 335.972656 C 80.039062 338.023438 81.941406 340.023438 83.898438 341.976562 C 85.851562 343.929688 87.851562 345.835938 89.898438 347.691406 C 91.949219 349.546875 94.039062 351.351562 96.175781 353.105469 C 98.3125 354.859375 100.492188 356.558594 102.710938 358.207031 C 104.929688 359.851562 107.1875 361.441406 109.488281 362.976562 C 111.785156 364.511719 114.117188 365.992188 116.488281 367.414062 C 118.859375 368.832031 121.261719 370.195312 123.699219 371.496094 C 126.136719 372.800781 128.605469 374.042969 131.105469 375.222656 C 133.601562 376.40625 136.128906 377.523438 138.679688 378.582031 C 141.234375 379.640625 143.8125 380.636719 146.414062 381.566406 C 149.015625 382.496094 151.640625 383.363281 154.285156 384.164062 C 156.929688 384.96875 159.589844 385.703125 162.273438 386.375 C 164.953125 387.046875 167.648438 387.652344 170.359375 388.191406 C 173.070312 388.730469 175.792969 389.203125 178.527344 389.609375 C 181.257812 390.015625 184 390.351562 186.75 390.625 C 189.503906 390.894531 192.257812 391.097656 195.019531 391.234375 C 197.777344 391.371094 200.539062 391.4375 203.304688 391.4375 C 206.066406 391.4375 208.828125 391.371094 211.589844 391.234375 C 214.351562 391.097656 217.105469 390.894531 219.855469 390.625 C 222.605469 390.351562 225.347656 390.015625 228.082031 389.609375 C 230.816406 389.203125 233.539062 388.730469 236.246094 388.191406 C 238.957031 387.652344 241.652344 387.046875 244.335938 386.375 C 247.015625 385.703125 249.679688 384.96875 252.324219 384.164062 C 254.96875 383.363281 257.589844 382.496094 260.191406 381.566406 C 262.792969 380.636719 265.371094 379.640625 267.925781 378.582031 C 270.480469 377.523438 273.003906 376.40625 275.503906 375.222656 C 278 374.042969 280.46875 372.800781 282.90625 371.496094 C 285.34375 370.195312 287.746094 368.832031 290.117188 367.414062 C 292.488281 365.992188 294.824219 364.511719 297.121094 362.976562 C 299.417969 361.441406 301.675781 359.851562 303.898438 358.207031 C 306.117188 356.558594 308.292969 354.859375 310.429688 353.105469 C 312.566406 351.351562 314.660156 349.546875 316.707031 347.691406 C 318.753906 345.835938 320.753906 343.929688 322.710938 341.976562 C 324.664062 340.023438 326.570312 338.023438 328.425781 335.972656 C 330.28125 333.925781 332.085938 331.835938 333.839844 329.699219 C 335.59375 327.5625 337.292969 325.382812 338.9375 323.164062 C 340.585938 320.945312 342.175781 318.6875 343.710938 316.386719 C 345.246094 314.089844 346.722656 311.757812 348.144531 309.386719 C 349.566406 307.015625 350.925781 304.609375 352.230469 302.175781 C 353.53125 299.738281 354.773438 297.269531 355.957031 294.769531 C 357.136719 292.273438 358.257812 289.746094 359.316406 287.191406 C 360.375 284.640625 361.367188 282.0625 362.296875 279.460938 C 363.230469 276.859375 364.097656 274.234375 364.898438 271.589844 C 365.699219 268.945312 366.4375 266.28125 367.109375 263.601562 C 367.78125 260.921875 368.386719 258.226562 368.925781 255.515625 C 369.464844 252.804688 369.9375 250.082031 370.34375 247.347656 C 370.746094 244.613281 371.085938 241.875 371.355469 239.121094 C 371.628906 236.371094 371.832031 233.617188 371.964844 230.855469 C 372.101562 228.097656 372.167969 225.335938 372.167969 222.570312 C 372.167969 219.808594 372.101562 217.046875 371.964844 214.285156 C 371.832031 211.523438 371.628906 208.769531 371.355469 206.019531 C 371.085938 203.269531 370.746094 200.527344 370.34375 197.792969 C 369.9375 195.058594 369.464844 192.335938 368.925781 189.625 C 368.386719 186.917969 367.78125 184.21875 367.109375 181.539062 C 366.4375 178.859375 365.699219 176.195312 364.898438 173.550781 C 364.097656 170.90625 363.230469 168.285156 362.296875 165.683594 C 361.367188 163.078125 360.371094 160.5 359.316406 157.949219 C 358.257812 155.394531 357.136719 152.871094 355.957031 150.371094 C 354.773438 147.875 353.53125 145.40625 352.230469 142.96875 C 350.925781 140.53125 349.566406 138.125 348.144531 135.757812 C 346.722656 133.386719 345.246094 131.050781 343.710938 128.753906 C 342.175781 126.457031 340.585938 124.195312 338.9375 121.976562 C 337.292969 119.757812 335.59375 117.578125 333.839844 115.445312 C 332.085938 113.308594 330.28125 111.214844 328.425781 109.167969 C 326.570312 107.121094 324.664062 105.117188 322.710938 103.164062 C 320.753906 101.210938 318.753906 99.304688 316.707031 97.449219 C 314.660156 95.59375 312.566406 93.789062 310.429688 92.035156 C 308.292969 90.28125 306.117188 88.582031 303.898438 86.9375 C 301.675781 85.289062 299.417969 83.699219 297.121094 82.164062 C 294.824219 80.628906 292.488281 79.152344 290.117188 77.730469 C 287.746094 76.308594 285.34375 74.945312 282.90625 73.644531 C 280.46875 72.339844 278 71.097656 275.503906 69.917969 C 273.003906 68.734375 270.480469 67.617188 267.925781 66.558594 C 265.371094 65.5 262.792969 64.507812 260.191406 63.574219 C 257.589844 62.644531 254.96875 61.777344 252.324219 60.976562 C 249.679688 60.175781 247.015625 59.4375 244.335938 58.765625 C 241.652344 58.09375 238.957031 57.488281 236.246094 56.949219 C 233.539062 56.410156 230.816406 55.9375 228.082031 55.53125 C 225.347656 55.128906 222.605469 54.789062 219.855469 54.519531 C 217.105469 54.246094 214.351562 54.042969 211.589844 53.910156 C 208.828125 53.773438 206.066406 53.703125 203.304688 53.703125 Z M 203.304688 53.703125 "/>
<path style=" stroke:none;fill-rule:nonzero;fill:rgb(85.099792%,28.239441%,61.178589%);fill-opacity:1;" d="M 425.117188 149.269531 C 422.351562 149.269531 419.589844 149.335938 416.832031 149.472656 C 414.070312 149.605469 411.316406 149.808594 408.566406 150.082031 C 405.816406 150.351562 403.074219 150.691406 400.339844 151.097656 C 397.605469 151.5 394.882812 151.972656 392.171875 152.511719 C 389.460938 153.050781 386.765625 153.65625 384.085938 154.328125 C 381.40625 155 378.742188 155.738281 376.097656 156.539062 C 373.453125 157.339844 370.828125 158.207031 368.226562 159.140625 C 365.625 160.070312 363.046875 161.066406 360.496094 162.121094 C 357.941406 163.179688 355.414062 164.300781 352.917969 165.480469 C 350.417969 166.664062 347.953125 167.90625 345.515625 169.207031 C 343.078125 170.511719 340.671875 171.871094 338.300781 173.292969 C 335.933594 174.714844 333.597656 176.191406 331.300781 177.726562 C 329.003906 179.261719 326.742188 180.851562 324.523438 182.5 C 322.304688 184.144531 320.125 185.847656 317.988281 187.597656 C 315.851562 189.351562 313.761719 191.15625 311.714844 193.011719 C 309.664062 194.867188 307.664062 196.773438 305.710938 198.726562 C 303.757812 200.683594 301.851562 202.683594 299.996094 204.730469 C 298.140625 206.777344 296.335938 208.871094 294.582031 211.007812 C 292.828125 213.144531 291.128906 215.320312 289.484375 217.539062 C 287.835938 219.761719 286.246094 222.019531 284.710938 224.316406 C 283.175781 226.613281 281.695312 228.949219 280.277344 231.320312 C 278.855469 233.691406 277.492188 236.09375 276.191406 238.53125 C 274.886719 240.96875 273.644531 243.4375 272.464844 245.933594 C 271.28125 248.433594 270.164062 250.957031 269.105469 253.511719 C 268.046875 256.066406 267.054688 258.644531 266.121094 261.246094 C 265.191406 263.847656 264.324219 266.46875 263.523438 269.113281 C 262.71875 271.757812 261.984375 274.421875 261.3125 277.101562 C 260.640625 279.785156 260.035156 282.480469 259.496094 285.191406 C 258.957031 287.902344 258.484375 290.621094 258.078125 293.355469 C 257.671875 296.089844 257.335938 298.832031 257.0625 301.582031 C 256.792969 304.332031 256.589844 307.089844 256.453125 309.847656 C 256.320312 312.609375 256.25 315.371094 256.25 318.132812 C 256.25 320.898438 256.320312 323.660156 256.453125 326.421875 C 256.589844 329.179688 256.792969 331.9375 257.0625 334.6875 C 257.335938 337.4375 257.671875 340.179688 258.078125 342.914062 C 258.484375 345.644531 258.957031 348.367188 259.496094 351.078125 C 260.035156 353.789062 260.640625 356.484375 261.3125 359.164062 C 261.984375 361.847656 262.71875 364.507812 263.523438 367.152344 C 264.324219 369.796875 265.191406 372.421875 266.121094 375.023438 C 267.054688 377.625 268.046875 380.203125 269.105469 382.757812 C 270.164062 385.308594 271.28125 387.835938 272.464844 390.332031 C 273.644531 392.832031 274.886719 395.300781 276.191406 397.738281 C 277.492188 400.175781 278.855469 402.578125 280.277344 404.949219 C 281.695312 407.320312 283.175781 409.652344 284.710938 411.953125 C 286.246094 414.25 287.835938 416.507812 289.484375 418.726562 C 291.128906 420.949219 292.828125 423.125 294.582031 425.261719 C 296.335938 427.398438 298.140625 429.488281 299.996094 431.539062 C 301.851562 433.585938 303.757812 435.585938 305.710938 437.539062 C 307.664062 439.496094 309.664062 441.398438 311.714844 443.253906 C 313.761719 445.113281 315.851562 446.917969 317.988281 448.667969 C 320.125 450.421875 322.304688 452.121094 324.523438 453.769531 C 326.742188 455.414062 329.003906 457.007812 331.300781 458.542969 C 333.597656 460.078125 335.933594 461.554688 338.300781 462.976562 C 340.671875 464.394531 343.078125 465.757812 345.515625 467.0625 C 347.953125 468.363281 350.417969 469.605469 352.917969 470.789062 C 355.414062 471.96875 357.941406 473.089844 360.496094 474.144531 C 363.046875 475.203125 365.625 476.199219 368.226562 477.128906 C 370.828125 478.058594 373.453125 478.925781 376.097656 479.730469 C 378.742188 480.53125 381.40625 481.269531 384.085938 481.941406 C 386.765625 482.609375 389.460938 483.214844 392.171875 483.753906 C 394.882812 484.292969 397.605469 484.765625 400.339844 485.171875 C 403.074219 485.578125 405.816406 485.917969 408.566406 486.1875 C 411.316406 486.457031 414.070312 486.660156 416.832031 486.796875 C 419.589844 486.933594 422.351562 487 425.117188 487 C 427.878906 487 430.644531 486.933594 433.402344 486.796875 C 436.164062 486.660156 438.917969 486.457031 441.667969 486.1875 C 444.417969 485.917969 447.160156 485.578125 449.894531 485.171875 C 452.628906 484.765625 455.351562 484.292969 458.0625 483.753906 C 460.773438 483.214844 463.46875 482.609375 466.148438 481.941406 C 468.828125 481.269531 471.492188 480.53125 474.136719 479.730469 C 476.78125 478.925781 479.40625 478.058594 482.007812 477.128906 C 484.609375 476.199219 487.1875 475.203125 489.738281 474.144531 C 492.292969 473.089844 494.820312 471.96875 497.316406 470.789062 C 499.816406 469.605469 502.28125 468.363281 504.71875 467.0625 C 507.15625 465.757812 509.5625 464.394531 511.933594 462.976562 C 514.300781 461.554688 516.636719 460.078125 518.933594 458.542969 C 521.230469 457.007812 523.492188 455.414062 525.710938 453.769531 C 527.929688 452.121094 530.109375 450.421875 532.246094 448.667969 C 534.382812 446.917969 536.472656 445.113281 538.519531 443.253906 C 540.570312 441.398438 542.570312 439.496094 544.523438 437.539062 C 546.476562 435.585938 548.382812 433.585938 550.238281 431.539062 C 552.09375 429.488281 553.898438 427.398438 555.652344 425.261719 C 557.40625 423.125 559.105469 420.949219 560.75 418.726562 C 562.398438 416.507812 563.988281 414.25 565.523438 411.953125 C 567.058594 409.652344 568.539062 407.320312 569.957031 404.949219 C 571.378906 402.578125 572.742188 400.175781 574.042969 397.738281 C 575.347656 395.300781 576.589844 392.832031 577.769531 390.332031 C 578.953125 387.835938 580.070312 385.308594 581.128906 382.757812 C 582.1875 380.203125 583.179688 377.625 584.113281 375.023438 C 585.042969 372.421875 585.910156 369.796875 586.710938 367.152344 C 587.515625 364.507812 588.25 361.847656 588.921875 359.164062 C 589.59375 356.484375 590.199219 353.789062 590.738281 351.078125 C 591.277344 348.367188 591.75 345.644531 592.15625 342.914062 C 592.5625 340.179688 592.898438 337.4375 593.171875 334.6875 C 593.441406 331.9375 593.644531 329.179688 593.78125 326.421875 C 593.914062 323.660156 593.984375 320.898438 593.984375 318.132812 C 593.984375 315.371094 593.914062 312.609375 593.78125 309.847656 C 593.644531 307.089844 593.441406 304.332031 593.171875 301.582031 C 592.898438 298.832031 592.5625 296.089844 592.15625 293.355469 C 591.75 290.621094 591.277344 287.902344 590.738281 285.191406 C 590.199219 282.480469 589.59375 279.785156 588.921875 277.101562 C 588.25 274.421875 587.515625 271.757812 586.710938 269.113281 C 585.910156 266.46875 585.042969 263.847656 584.113281 261.246094 C 583.179688 258.644531 582.1875 256.066406 581.128906 253.511719 C 580.070312 250.957031 578.953125 248.433594 577.769531 245.933594 C 576.589844 243.4375 575.347656 240.96875 574.042969 238.53125 C 572.742188 236.09375 571.378906 233.691406 569.957031 231.320312 C 568.539062 228.949219 567.058594 226.613281 565.523438 224.316406 C 563.988281 222.019531 562.398438 219.761719 560.75 217.539062 C 559.105469 215.320312 557.40625 213.144531 555.652344 211.007812 C 553.898438 208.871094 552.09375 206.777344 550.238281 204.730469 C 548.382812 202.683594 546.476562 200.683594 544.523438 198.726562 C 542.570312 196.773438 540.570312 194.867188 538.519531 193.011719 C 536.472656 191.15625 534.382812 189.351562 532.246094 187.597656 C 530.109375 185.847656 527.929688 184.144531 525.710938 182.5 C 523.492188 180.851562 521.230469 179.261719 518.933594 177.726562 C 516.636719 176.191406 514.300781 174.714844 511.933594 173.292969 C 509.5625 171.871094 507.15625 170.511719 504.71875 169.207031 C 502.28125 167.90625 499.816406 166.664062 497.316406 165.480469 C 494.820312 164.300781 492.292969 163.179688 489.738281 162.121094 C 487.1875 161.066406 484.609375 160.070312 482.007812 159.140625 C 479.40625 158.207031 476.78125 157.339844 474.136719 156.539062 C 471.492188 155.738281 468.828125 155 466.148438 154.328125 C 463.46875 153.65625 460.773438 153.050781 458.0625 152.511719 C 455.351562 151.972656 452.628906 151.5 449.894531 151.097656 C 447.160156 150.691406 444.417969 150.351562 441.667969 150.082031 C 438.917969 149.808594 436.164062 149.605469 433.402344 149.472656 C 430.644531 149.335938 427.878906 149.269531 425.117188 149.269531 Z M 425.117188 149.269531 "/>
<path style=" stroke:none;fill-rule:nonzero;fill:rgb(100%,90.19928%,88.62915%);fill-opacity:1;" d="M 412.207031 53.703125 C 409.445312 53.703125 406.683594 53.773438 403.921875 53.910156 C 401.164062 54.042969 398.40625 54.246094 395.65625 54.519531 C 392.90625 54.789062 390.164062 55.128906 387.429688 55.53125 C 384.695312 55.9375 381.976562 56.410156 379.265625 56.949219 C 376.554688 57.488281 373.859375 58.09375 371.175781 58.765625 C 368.496094 59.4375 365.832031 60.175781 363.1875 60.976562 C 360.542969 61.78125 357.921875 62.648438 355.320312 63.578125 C 352.71875 64.511719 350.140625 65.503906 347.585938 66.5625 C 345.03125 67.621094 342.507812 68.742188 340.007812 69.921875 C 337.511719 71.105469 335.042969 72.347656 332.605469 73.648438 C 330.167969 74.953125 327.765625 76.316406 325.394531 77.738281 C 323.023438 79.15625 320.6875 80.636719 318.390625 82.171875 C 316.09375 83.707031 313.835938 85.300781 311.613281 86.945312 C 309.394531 88.59375 307.21875 90.292969 305.082031 92.046875 C 302.945312 93.800781 300.851562 95.605469 298.804688 97.460938 C 296.757812 99.320312 294.757812 101.222656 292.800781 103.179688 C 290.847656 105.132812 288.941406 107.136719 287.085938 109.183594 C 285.230469 111.230469 283.425781 113.324219 281.671875 115.460938 C 279.917969 117.597656 278.21875 119.777344 276.574219 121.996094 C 274.925781 124.21875 273.335938 126.476562 271.800781 128.777344 C 270.265625 131.074219 268.789062 133.410156 267.367188 135.78125 C 265.945312 138.152344 264.585938 140.554688 263.28125 142.992188 C 261.980469 145.433594 260.738281 147.898438 259.554688 150.398438 C 258.375 152.898438 257.253906 155.425781 256.195312 157.980469 C 255.140625 160.53125 254.144531 163.109375 253.214844 165.714844 C 252.28125 168.316406 251.414062 170.941406 250.613281 173.585938 C 249.8125 176.230469 249.074219 178.894531 248.402344 181.578125 C 247.730469 184.257812 247.125 186.953125 246.585938 189.667969 C 246.046875 192.378906 245.574219 195.101562 245.167969 197.835938 C 244.765625 200.570312 244.425781 203.3125 244.15625 206.0625 C 243.882812 208.816406 243.679688 211.570312 243.546875 214.332031 C 243.410156 217.09375 243.34375 219.855469 243.34375 222.621094 C 243.34375 225.382812 243.410156 228.148438 243.546875 230.910156 C 243.679688 233.667969 243.882812 236.425781 244.15625 239.175781 C 244.425781 241.925781 244.765625 244.671875 245.167969 247.40625 C 245.574219 250.140625 246.046875 252.863281 246.585938 255.574219 C 247.125 258.285156 247.730469 260.980469 248.402344 263.664062 C 249.074219 266.34375 249.8125 269.007812 250.613281 271.652344 C 251.414062 274.296875 252.28125 276.921875 253.214844 279.527344 C 254.144531 282.128906 255.140625 284.707031 256.195312 287.261719 C 257.253906 289.816406 258.375 292.339844 259.554688 294.839844 C 260.738281 297.339844 261.980469 299.808594 263.28125 302.246094 C 264.585938 304.683594 265.945312 307.089844 267.367188 309.460938 C 268.789062 311.832031 270.265625 314.164062 271.800781 316.464844 C 273.335938 318.761719 274.925781 321.023438 276.574219 323.242188 C 278.21875 325.464844 279.917969 327.640625 281.671875 329.777344 C 283.425781 331.914062 285.230469 334.007812 287.085938 336.054688 C 288.941406 338.105469 290.847656 340.105469 292.800781 342.0625 C 294.757812 344.015625 296.757812 345.921875 298.804688 347.777344 C 300.851562 349.632812 302.945312 351.4375 305.082031 353.191406 C 307.21875 354.945312 309.394531 356.648438 311.613281 358.292969 C 313.835938 359.941406 316.09375 361.53125 318.390625 363.066406 C 320.6875 364.605469 323.023438 366.082031 325.394531 367.503906 C 327.765625 368.925781 330.167969 370.285156 332.605469 371.589844 C 335.042969 372.894531 337.511719 374.136719 340.007812 375.316406 C 342.507812 376.5 345.03125 377.621094 347.585938 378.675781 C 350.140625 379.734375 352.71875 380.730469 355.320312 381.660156 C 357.921875 382.59375 360.542969 383.460938 363.1875 384.261719 C 365.832031 385.0625 368.496094 385.800781 371.175781 386.472656 C 373.859375 387.144531 376.554688 387.75 379.265625 388.289062 C 381.976562 388.828125 384.695312 389.300781 387.429688 389.707031 C 390.164062 390.113281 392.90625 390.449219 395.65625 390.722656 C 398.40625 390.992188 401.164062 391.195312 403.921875 391.332031 C 406.683594 391.46875 409.445312 391.535156 412.207031 391.535156 C 414.972656 391.535156 417.734375 391.46875 420.492188 391.332031 C 423.253906 391.195312 426.007812 390.992188 428.761719 390.722656 C 431.511719 390.449219 434.253906 390.113281 436.984375 389.707031 C 439.71875 389.300781 442.441406 388.828125 445.152344 388.289062 C 447.863281 387.75 450.558594 387.144531 453.238281 386.472656 C 455.921875 385.800781 458.582031 385.0625 461.226562 384.261719 C 463.871094 383.460938 466.496094 382.59375 469.097656 381.660156 C 471.699219 380.730469 474.277344 379.734375 476.832031 378.675781 C 479.382812 377.621094 481.910156 376.5 484.40625 375.316406 C 486.90625 374.136719 489.375 372.894531 491.8125 371.589844 C 494.25 370.285156 496.652344 368.925781 499.023438 367.503906 C 501.394531 366.082031 503.726562 364.605469 506.023438 363.066406 C 508.324219 361.53125 510.582031 359.941406 512.800781 358.292969 C 515.019531 356.648438 517.199219 354.945312 519.335938 353.191406 C 521.472656 351.4375 523.5625 349.632812 525.613281 347.777344 C 527.660156 345.921875 529.660156 344.015625 531.613281 342.0625 C 533.570312 340.105469 535.472656 338.105469 537.328125 336.054688 C 539.1875 334.007812 540.992188 331.914062 542.742188 329.777344 C 544.496094 327.640625 546.195312 325.464844 547.84375 323.242188 C 549.488281 321.023438 551.078125 318.761719 552.617188 316.464844 C 554.152344 314.164062 555.628906 311.832031 557.050781 309.460938 C 558.46875 307.089844 559.832031 304.683594 561.136719 302.246094 C 562.4375 299.808594 563.679688 297.339844 564.863281 294.839844 C 566.042969 292.339844 567.164062 289.816406 568.21875 287.261719 C 569.277344 284.707031 570.273438 282.128906 571.203125 279.527344 C 572.132812 276.921875 573 274.296875 573.804688 271.652344 C 574.605469 269.007812 575.34375 266.34375 576.015625 263.664062 C 576.683594 260.980469 577.289062 258.285156 577.828125 255.574219 C 578.367188 252.863281 578.839844 250.140625 579.246094 247.40625 C 579.652344 244.671875 579.992188 241.925781 580.261719 239.175781 C 580.53125 236.425781 580.734375 233.667969 580.871094 230.910156 C 581.007812 228.148438 581.074219 225.382812 581.074219 222.621094 C 581.074219 219.855469 581.007812 217.09375 580.871094 214.332031 C 580.734375 211.570312 580.53125 208.816406 580.261719 206.0625 C 579.992188 203.3125 579.652344 200.570312 579.246094 197.835938 C 578.839844 195.101562 578.367188 192.378906 577.828125 189.667969 C 577.289062 186.953125 576.683594 184.257812 576.011719 181.578125 C 575.34375 178.894531 574.605469 176.230469 573.804688 173.585938 C 573 170.941406 572.132812 168.316406 571.203125 165.714844 C 570.273438 163.109375 569.277344 160.53125 568.21875 157.980469 C 567.164062 155.425781 566.042969 152.898438 564.863281 150.398438 C 563.679688 147.898438 562.4375 145.433594 561.136719 142.992188 C 559.832031 140.554688 558.46875 138.152344 557.050781 135.78125 C 555.628906 133.410156 554.152344 131.074219 552.617188 128.777344 C 551.078125 126.476562 549.488281 124.21875 547.84375 121.996094 C 546.195312 119.777344 544.496094 117.597656 542.742188 115.460938 C 540.992188 113.324219 539.1875 111.230469 537.328125 109.183594 C 535.472656 107.136719 533.570312 105.132812 531.613281 103.179688 C 529.660156 101.222656 527.660156 99.320312 525.613281 97.460938 C 523.5625 95.605469 521.472656 93.800781 519.335938 92.046875 C 517.199219 90.292969 515.019531 88.59375 512.800781 86.945312 C 510.582031 85.300781 508.324219 83.707031 506.023438 82.171875 C 503.726562 80.636719 501.394531 79.15625 499.023438 77.738281 C 496.652344 76.316406 494.25 74.953125 491.8125 73.648438 C 489.375 72.347656 486.90625 71.105469 484.40625 69.921875 C 481.910156 68.742188 479.382812 67.621094 476.832031 66.5625 C 474.277344 65.503906 471.699219 64.511719 469.097656 63.578125 C 466.496094 62.648438 463.871094 61.78125 461.226562 60.976562 C 458.582031 60.175781 455.921875 59.4375 453.238281 58.765625 C 450.558594 58.09375 447.863281 57.488281 445.152344 56.949219 C 442.441406 56.410156 439.71875 55.9375 436.984375 55.53125 C 434.253906 55.128906 431.511719 54.789062 428.761719 54.519531 C 426.007812 54.246094 423.253906 54.042969 420.492188 53.910156 C 417.734375 53.773438 414.972656 53.703125 412.207031 53.703125 Z M 412.207031 53.703125 "/>
<path style=" stroke:none;fill-rule:nonzero;fill:rgb(43.528748%,65.879822%,86.268616%);fill-opacity:1;" d="M 327.425781 0 C 324.660156 0 321.898438 0.0664062 319.136719 0.203125 C 316.378906 0.339844 313.621094 0.542969 310.871094 0.8125 C 308.121094 1.085938 305.378906 1.421875 302.644531 1.828125 C 299.914062 2.234375 297.191406 2.707031 294.480469 3.246094 C 291.769531 3.785156 289.074219 4.390625 286.394531 5.0625 C 283.710938 5.730469 281.050781 6.46875 278.40625 7.269531 C 275.761719 8.074219 273.136719 8.941406 270.535156 9.871094 C 267.933594 10.800781 265.355469 11.796875 262.800781 12.855469 C 260.25 13.910156 257.722656 15.03125 255.222656 16.214844 C 252.726562 17.394531 250.257812 18.636719 247.820312 19.941406 C 245.382812 21.242188 242.980469 22.605469 240.609375 24.023438 C 238.238281 25.445312 235.90625 26.921875 233.605469 28.460938 C 231.308594 29.996094 229.050781 31.585938 226.832031 33.230469 C 224.609375 34.878906 222.433594 36.578125 220.296875 38.332031 C 218.160156 40.085938 216.066406 41.886719 214.019531 43.746094 C 211.972656 45.601562 209.972656 47.503906 208.019531 49.460938 C 206.0625 51.414062 204.160156 53.414062 202.300781 55.460938 C 200.445312 57.511719 198.640625 59.601562 196.890625 61.738281 C 195.136719 63.875 193.4375 66.054688 191.789062 68.273438 C 190.144531 70.492188 188.550781 72.75 187.015625 75.050781 C 185.480469 77.347656 184.003906 79.679688 182.582031 82.050781 C 181.160156 84.421875 179.800781 86.824219 178.496094 89.261719 C 177.195312 91.699219 175.953125 94.167969 174.769531 96.667969 C 173.589844 99.164062 172.46875 101.691406 171.410156 104.242188 C 170.355469 106.796875 169.359375 109.375 168.429688 111.976562 C 167.496094 114.578125 166.632812 117.203125 165.828125 119.847656 C 165.027344 122.492188 164.289062 125.152344 163.617188 127.835938 C 162.945312 130.515625 162.339844 133.210938 161.800781 135.921875 C 161.261719 138.632812 160.792969 141.355469 160.386719 144.089844 C 159.980469 146.820312 159.640625 149.5625 159.371094 152.3125 C 159.101562 155.066406 158.898438 157.820312 158.761719 160.582031 C 158.625 163.339844 158.558594 166.101562 158.558594 168.867188 C 158.558594 171.628906 158.625 174.390625 158.761719 177.152344 C 158.898438 179.914062 159.101562 182.667969 159.371094 185.417969 C 159.640625 188.167969 159.980469 190.910156 160.386719 193.644531 C 160.792969 196.378906 161.261719 199.101562 161.800781 201.808594 C 162.339844 204.519531 162.945312 207.214844 163.617188 209.898438 C 164.289062 212.578125 165.027344 215.242188 165.828125 217.886719 C 166.632812 220.53125 167.496094 223.152344 168.429688 225.753906 C 169.359375 228.359375 170.355469 230.933594 171.410156 233.488281 C 172.46875 236.042969 173.589844 238.566406 174.769531 241.066406 C 175.953125 243.5625 177.195312 246.03125 178.496094 248.46875 C 179.800781 250.90625 181.160156 253.308594 182.582031 255.679688 C 184.003906 258.050781 185.480469 260.386719 187.015625 262.683594 C 188.550781 264.980469 190.144531 267.238281 191.789062 269.460938 C 193.4375 271.679688 195.136719 273.855469 196.890625 275.992188 C 198.640625 278.128906 200.445312 280.222656 202.300781 282.269531 C 204.160156 284.316406 206.0625 286.316406 208.019531 288.273438 C 209.972656 290.226562 211.972656 292.132812 214.019531 293.988281 C 216.066406 295.84375 218.160156 297.648438 220.296875 299.402344 C 222.433594 301.15625 224.609375 302.855469 226.832031 304.5 C 229.050781 306.148438 231.308594 307.738281 233.605469 309.273438 C 235.90625 310.808594 238.238281 312.285156 240.609375 313.707031 C 242.980469 315.128906 245.382812 316.488281 247.820312 317.792969 C 250.257812 319.09375 252.726562 320.335938 255.222656 321.519531 C 257.722656 322.699219 260.25 323.820312 262.800781 324.878906 C 265.355469 325.9375 267.933594 326.929688 270.535156 327.859375 C 273.136719 328.792969 275.761719 329.660156 278.40625 330.460938 C 281.050781 331.261719 283.710938 332 286.394531 332.671875 C 289.074219 333.34375 291.769531 333.949219 294.480469 334.488281 C 297.191406 335.027344 299.914062 335.5 302.644531 335.90625 C 305.378906 336.308594 308.121094 336.648438 310.871094 336.917969 C 313.621094 337.191406 316.378906 337.394531 319.136719 337.527344 C 321.898438 337.664062 324.660156 337.730469 327.425781 337.730469 C 330.1875 337.730469 332.949219 337.664062 335.710938 337.527344 C 338.46875 337.394531 341.226562 337.191406 343.976562 336.917969 C 346.726562 336.648438 349.46875 336.308594 352.203125 335.90625 C 354.933594 335.5 357.65625 335.027344 360.367188 334.488281 C 363.078125 333.949219 365.773438 333.34375 368.457031 332.671875 C 371.136719 332 373.796875 331.261719 376.441406 330.460938 C 379.085938 329.660156 381.710938 328.792969 384.3125 327.859375 C 386.914062 326.929688 389.492188 325.9375 392.046875 324.878906 C 394.597656 323.820312 397.125 322.699219 399.625 321.519531 C 402.121094 320.335938 404.589844 319.09375 407.027344 317.792969 C 409.464844 316.488281 411.867188 315.128906 414.238281 313.707031 C 416.609375 312.285156 418.941406 310.808594 421.242188 309.273438 C 423.539062 307.738281 425.796875 306.148438 428.015625 304.5 C 430.238281 302.855469 432.414062 301.15625 434.550781 299.402344 C 436.6875 297.648438 438.78125 295.84375 440.828125 293.988281 C 442.875 292.132812 444.875 290.226562 446.832031 288.273438 C 448.785156 286.316406 450.691406 284.316406 452.546875 282.269531 C 454.402344 280.222656 456.207031 278.128906 457.960938 275.992188 C 459.710938 273.855469 461.414062 271.679688 463.058594 269.460938 C 464.703125 267.238281 466.296875 264.980469 467.832031 262.683594 C 469.367188 260.386719 470.84375 258.050781 472.265625 255.679688 C 473.6875 253.308594 475.046875 250.90625 476.351562 248.46875 C 477.652344 246.03125 478.894531 243.5625 480.078125 241.066406 C 481.257812 238.566406 482.378906 236.042969 483.4375 233.488281 C 484.492188 230.933594 485.488281 228.359375 486.417969 225.753906 C 487.351562 223.152344 488.214844 220.53125 489.019531 217.886719 C 489.820312 215.242188 490.558594 212.578125 491.230469 209.898438 C 491.902344 207.214844 492.507812 204.519531 493.046875 201.808594 C 493.585938 199.101562 494.058594 196.378906 494.460938 193.644531 C 494.867188 190.910156 495.207031 188.167969 495.476562 185.417969 C 495.746094 182.667969 495.949219 179.914062 496.085938 177.152344 C 496.222656 174.390625 496.289062 171.628906 496.289062 168.867188 C 496.289062 166.101562 496.222656 163.339844 496.085938 160.582031 C 495.949219 157.820312 495.746094 155.066406 495.476562 152.3125 C 495.207031 149.5625 494.867188 146.820312 494.460938 144.089844 C 494.058594 141.355469 493.585938 138.632812 493.046875 135.921875 C 492.507812 133.210938 491.902344 130.515625 491.230469 127.835938 C 490.558594 125.152344 489.820312 122.492188 489.019531 119.847656 C 488.214844 117.203125 487.351562 114.578125 486.417969 111.976562 C 485.488281 109.375 484.492188 106.796875 483.4375 104.242188 C 482.378906 101.691406 481.257812 99.164062 480.078125 96.667969 C 478.894531 94.167969 477.652344 91.699219 476.351562 89.261719 C 475.046875 86.824219 473.6875 84.421875 472.265625 82.050781 C 470.84375 79.679688 469.367188 77.347656 467.832031 75.050781 C 466.296875 72.75 464.703125 70.492188 463.058594 68.273438 C 461.414062 66.054688 459.710938 63.875 457.960938 61.738281 C 456.207031 59.601562 454.402344 57.511719 452.546875 55.460938 C 450.691406 53.414062 448.785156 51.414062 446.832031 49.460938 C 444.875 47.503906 442.875 45.601562 440.828125 43.746094 C 438.78125 41.886719 436.6875 40.085938 434.550781 38.332031 C 432.414062 36.578125 430.238281 34.878906 428.015625 33.230469 C 425.796875 31.585938 423.539062 29.996094 421.242188 28.460938 C 418.941406 26.921875 416.609375 25.445312 414.238281 24.023438 C 411.867188 22.605469 409.464844 21.242188 407.027344 19.941406 C 404.589844 18.636719 402.121094 17.394531 399.625 16.214844 C 397.125 15.03125 394.597656 13.910156 392.046875 12.855469 C 389.492188 11.796875 386.914062 10.800781 384.3125 9.871094 C 381.710938 8.941406 379.085938 8.074219 376.441406 7.269531 C 373.796875 6.46875 371.136719 5.730469 368.457031 5.0625 C 365.773438 4.390625 363.078125 3.785156 360.367188 3.246094 C 357.65625 2.707031 354.933594 2.234375 352.203125 1.828125 C 349.46875 1.421875 346.726562 1.085938 343.976562 0.8125 C 341.226562 0.542969 338.46875 0.339844 335.710938 0.203125 C 332.949219 0.0664062 330.1875 0 327.425781 0 Z M 327.425781 0 "/>
</g>
</svg>
