<?xml version="1.0" encoding="UTF-8"?>
<svg xmlns="http://www.w3.org/2000/svg" xmlns:xlink="http://www.w3.org/1999/xlink" width="217.5pt" height="225pt" viewBox="0 0 217.5 225" version="1.2">
<defs>
<clipPath id="clip1">
  <path d="M 12.84375 0.257812 L 204.84375 0.257812 L 204.84375 224 L 12.84375 224 Z M 12.84375 0.257812 "/>
</clipPath>
</defs>
<g id="surface1">
<g clip-path="url(#clip1)" clip-rule="nonzero">
<path style=" stroke:none;fill-rule:nonzero;fill:rgb(13.328552%,12.939453%,16.079712%);fill-opacity:1;" d="M 126.8125 189.453125 C 123.980469 189.457031 121.230469 188.863281 119.222656 188.261719 C 118.21875 187.957031 117.402344 187.660156 116.847656 187.441406 C 116.816406 187.425781 116.792969 187.417969 116.761719 187.40625 L 116.425781 186.917969 C 118.851562 175.957031 130.949219 170.019531 141.160156 175.5 C 141.558594 175.710938 141.9375 175.695312 142.257812 175.554688 L 142.289062 175.648438 C 141.59375 178.433594 140.675781 180.644531 139.636719 182.394531 C 138.78125 183.835938 137.84375 184.96875 136.859375 185.878906 C 136.210938 186.472656 135.535156 186.96875 134.84375 187.394531 C 133.863281 185.316406 132.921875 183.242188 132 181.210938 C 130.640625 178.21875 126.238281 180.816406 127.589844 183.789062 C 128.402344 185.582031 129.230469 187.382812 130.082031 189.171875 C 129.003906 189.367188 127.902344 189.453125 126.8125 189.453125 Z M 70.785156 120.816406 C 73.238281 113.230469 78.3125 106.785156 85.226562 102.644531 C 86.636719 101.800781 85.355469 99.59375 83.9375 100.445312 C 77.070312 104.558594 71.824219 110.835938 68.988281 118.222656 L 52.484375 94.320312 C 53.207031 89.277344 54.710938 85.113281 56.765625 81.664062 C 58.421875 78.890625 60.433594 76.566406 62.703125 74.617188 C 66.109375 71.703125 70.117188 69.632812 74.347656 68.296875 C 75.445312 67.949219 76.554688 67.65625 77.675781 67.40625 C 77.714844 67.535156 77.785156 67.664062 77.902344 67.785156 C 87.566406 78.046875 96.070312 89.28125 103.238281 101.273438 C 100.992188 101.898438 98.777344 102.734375 96.621094 103.792969 C 89.351562 107.363281 83.34375 113.203125 77.691406 118.875 C 76.53125 120.042969 78.335938 121.847656 79.5 120.679688 C 84.667969 115.488281 90.011719 110.441406 96.414062 106.789062 C 99 105.320312 101.738281 104.21875 104.558594 103.503906 C 116.652344 124.375 124.691406 147.46875 127.699219 171.683594 C 121.707031 173.382812 116.617188 177.863281 114.523438 184.164062 Z M 48.492188 101.640625 C 47.761719 99.929688 47.054688 98.207031 46.371094 96.476562 C 46.414062 96.460938 46.457031 96.449219 46.503906 96.433594 L 46.761719 96.8125 L 50.675781 102.484375 C 49.941406 102.222656 49.214844 101.9375 48.492188 101.640625 Z M 40.8125 97.542969 C 42.070312 97.453125 43.316406 97.273438 44.539062 96.988281 C 45 98.164062 45.472656 99.335938 45.957031 100.5 C 44.179688 99.632812 42.464844 98.640625 40.8125 97.542969 Z M 32.160156 90.136719 C 32.683594 90.15625 33.210938 90.160156 33.738281 90.15625 C 34.046875 91.003906 34.359375 91.847656 34.683594 92.691406 C 33.8125 91.875 32.96875 91.023438 32.160156 90.136719 Z M 37.039062 16.78125 C 37.058594 18.25 37.089844 19.722656 37.132812 21.191406 C 35.703125 21 34.269531 20.824219 32.832031 20.671875 C 34.15625 19.285156 35.566406 17.992188 37.039062 16.78125 Z M 86.851562 12.144531 C 86.9375 12.96875 87.027344 13.789062 87.117188 14.613281 C 84.0625 12.957031 80.925781 11.453125 77.710938 10.121094 C 77.632812 9.488281 77.550781 8.859375 77.472656 8.230469 C 79.476562 8.804688 81.425781 9.519531 83.3125 10.363281 C 84.519531 10.902344 85.699219 11.503906 86.851562 12.144531 Z M 87.21875 66.359375 C 92.117188 66.355469 96.679688 67.183594 100.082031 68.488281 C 101.785156 69.136719 103.191406 69.902344 104.195312 70.671875 C 104.699219 71.054688 105.101562 71.4375 105.402344 71.792969 C 105.683594 72.125 105.871094 72.425781 105.996094 72.695312 L 115.65625 100.105469 C 112.109375 99.804688 108.59375 100.039062 105.160156 100.789062 C 97.992188 88.703125 89.472656 77.371094 79.773438 66.996094 C 82.277344 66.566406 84.792969 66.359375 87.21875 66.359375 Z M 66.96875 64.640625 C 66.664062 63.511719 66.367188 62.386719 66.074219 61.257812 C 68.578125 61.550781 71.082031 61.84375 73.585938 62.136719 C 71.34375 62.785156 69.121094 63.609375 66.96875 64.640625 Z M 52.542969 76.894531 C 52.300781 77.253906 52.0625 77.621094 51.832031 77.992188 C 50.460938 78.460938 49.078125 78.871094 47.683594 79.21875 C 46.863281 76.1875 46.097656 73.144531 45.390625 70.089844 C 49.25 70.015625 53.109375 69.949219 56.96875 69.875 C 57.097656 70.320312 57.226562 70.769531 57.363281 71.214844 C 55.601562 72.890625 53.972656 74.773438 52.542969 76.894531 Z M 48.949219 83.722656 C 48.691406 82.839844 48.449219 81.953125 48.203125 81.070312 C 48.953125 80.878906 49.699219 80.675781 50.441406 80.453125 C 49.902344 81.5 49.402344 82.585938 48.949219 83.722656 Z M 33.171875 82.613281 C 35.265625 82.703125 37.363281 82.664062 39.453125 82.5 C 39.960938 84.136719 40.488281 85.769531 41.035156 87.394531 C 39.066406 87.847656 37.066406 88.125 35.050781 88.222656 C 34.386719 86.363281 33.761719 84.496094 33.171875 82.613281 Z M 27.390625 84.027344 C 27.007812 83.3125 26.636719 82.589844 26.277344 81.867188 C 27.894531 82.152344 29.519531 82.363281 31.148438 82.492188 C 31.746094 84.425781 32.386719 86.351562 33.058594 88.265625 C 32.179688 88.257812 31.304688 88.207031 30.421875 88.132812 C 29.347656 86.824219 28.335938 85.453125 27.390625 84.027344 Z M 23.816406 33.871094 C 23.808594 37.199219 23.90625 40.523438 24.105469 43.839844 C 22.898438 43.65625 21.695312 43.480469 20.484375 43.3125 C 21.296875 40.015625 22.417969 36.859375 23.816406 33.871094 Z M 30.175781 23.6875 C 30.210938 26.507812 30.300781 29.324219 30.449219 32.136719 C 28.890625 31.78125 27.324219 31.433594 25.757812 31.101562 C 25.765625 30.765625 25.777344 30.425781 25.785156 30.089844 C 27.085938 27.828125 28.558594 25.6875 30.175781 23.6875 Z M 37.625 30.992188 C 36.816406 31.734375 36.027344 32.492188 35.261719 33.277344 C 34.308594 33.042969 33.347656 32.8125 32.390625 32.585938 C 32.203125 29.230469 32.097656 25.871094 32.078125 22.511719 C 33.785156 22.683594 35.492188 22.886719 37.191406 23.117188 C 37.292969 25.746094 37.441406 28.371094 37.625 30.992188 Z M 46.003906 24.5625 C 45.132812 25.117188 44.269531 25.683594 43.425781 26.285156 C 42.042969 27.265625 40.71875 28.308594 39.433594 29.394531 C 39.308594 27.394531 39.195312 25.390625 39.117188 23.390625 C 41.421875 23.730469 43.71875 24.117188 46.003906 24.5625 Z M 46.128906 11.011719 C 46.09375 11.007812 46.058594 11.003906 46.023438 11.003906 C 46.058594 10.984375 46.089844 10.96875 46.125 10.953125 C 46.128906 10.972656 46.128906 10.992188 46.128906 11.011719 Z M 55.613281 12.4375 C 53.113281 11.953125 50.59375 11.550781 48.0625 11.238281 C 48.03125 10.855469 48 10.476562 47.972656 10.097656 C 50.296875 9.097656 52.714844 8.292969 55.207031 7.703125 C 55.332031 9.28125 55.464844 10.859375 55.613281 12.4375 Z M 62.886719 7.261719 C 63.734375 7.46875 64.578125 7.691406 65.414062 7.921875 C 65.574219 10.277344 65.769531 12.625 65.992188 14.972656 C 63.214844 14.152344 60.40625 13.4375 57.570312 12.832031 C 57.394531 10.992188 57.234375 9.144531 57.09375 7.296875 C 58.773438 6.976562 60.488281 6.753906 62.234375 6.632812 C 62.300781 6.917969 62.507812 7.167969 62.886719 7.261719 Z M 76.398438 14.90625 C 73.816406 15.058594 71.246094 15.355469 68.703125 15.8125 C 68.457031 15.730469 68.210938 15.652344 67.96875 15.574219 C 67.738281 13.214844 67.539062 10.851562 67.371094 8.484375 C 70.289062 9.351562 73.15625 10.347656 75.964844 11.480469 C 76.113281 12.621094 76.253906 13.765625 76.398438 14.90625 Z M 78.300781 14.820312 C 78.199219 13.988281 78.09375 13.152344 77.988281 12.320312 C 79.835938 13.109375 81.65625 13.960938 83.449219 14.859375 C 81.734375 14.78125 80.019531 14.765625 78.300781 14.820312 Z M 89.109375 15.363281 C 89.039062 14.695312 88.96875 14.023438 88.894531 13.359375 C 90.15625 14.152344 91.378906 15.003906 92.5625 15.921875 C 91.417969 15.707031 90.265625 15.519531 89.109375 15.363281 Z M 102.941406 63.039062 C 102.878906 62.449219 102.820312 61.863281 102.761719 61.277344 C 103.808594 61.839844 104.851562 62.410156 105.894531 62.988281 C 105.9375 63.503906 105.976562 64.023438 106.019531 64.546875 C 106.007812 64.539062 105.996094 64.53125 105.984375 64.523438 C 105.039062 63.976562 104.019531 63.484375 102.941406 63.039062 Z M 97.558594 61.359375 C 96.40625 61.09375 95.207031 60.875 93.972656 60.703125 C 93.824219 59.3125 93.675781 57.921875 93.523438 56.53125 C 95.945312 57.722656 98.347656 58.945312 100.734375 60.203125 C 100.808594 60.902344 100.878906 61.601562 100.949219 62.300781 C 99.871094 61.941406 98.738281 61.628906 97.558594 61.359375 Z M 84.035156 60.339844 C 84.015625 60.191406 83.996094 60.039062 83.976562 59.890625 C 84.378906 60.023438 84.777344 60.152344 85.179688 60.285156 C 84.796875 60.300781 84.417969 60.316406 84.035156 60.339844 Z M 76.125 60.523438 C 75.824219 59.40625 75.53125 58.292969 75.246094 57.179688 C 77.5 57.847656 79.742188 58.535156 81.980469 59.25 C 82.035156 59.664062 82.085938 60.082031 82.140625 60.496094 C 81.160156 60.59375 80.179688 60.722656 79.195312 60.878906 C 78.171875 60.761719 77.148438 60.640625 76.125 60.523438 Z M 64.316406 54.097656 C 67.257812 54.878906 70.1875 55.6875 73.113281 56.539062 C 73.425781 57.789062 73.746094 59.035156 74.078125 60.28125 C 71.242188 59.949219 68.402344 59.617188 65.566406 59.285156 C 65.132812 57.558594 64.71875 55.832031 64.316406 54.097656 Z M 55.765625 58.136719 C 55.222656 55.953125 54.707031 53.761719 54.214844 51.566406 C 56.890625 52.199219 59.5625 52.859375 62.222656 53.546875 C 62.648438 55.382812 63.082031 57.21875 63.535156 59.046875 C 60.945312 58.746094 58.355469 58.4375 55.765625 58.136719 Z M 43.015625 58.554688 C 46.753906 58.992188 50.496094 59.433594 54.234375 59.871094 C 54.925781 62.582031 55.652344 65.28125 56.421875 67.972656 C 52.601562 68.042969 48.785156 68.113281 44.964844 68.183594 C 44.253906 64.988281 43.601562 61.777344 43.015625 58.554688 Z M 37.550781 68.320312 C 36.714844 64.785156 35.976562 61.230469 35.332031 57.65625 C 37.230469 57.878906 39.125 58.101562 41.023438 58.324219 C 41.621094 61.632812 42.285156 64.933594 43.011719 68.21875 C 41.191406 68.253906 39.371094 68.289062 37.550781 68.320312 Z M 29.839844 70.375 C 31.914062 70.339844 33.992188 70.300781 36.066406 70.261719 C 36.914062 73.734375 37.851562 77.191406 38.878906 80.617188 C 36.78125 80.765625 34.675781 80.78125 32.570312 80.667969 C 31.546875 77.265625 30.636719 73.832031 29.839844 70.375 Z M 22.25 72.160156 C 22.3125 71.609375 22.378906 71.0625 22.453125 70.511719 C 24.273438 70.480469 26.089844 70.445312 27.902344 70.410156 C 28.679688 73.804688 29.558594 77.175781 30.550781 80.515625 C 28.777344 80.34375 27.007812 80.085938 25.25 79.730469 C 24.113281 77.257812 23.113281 74.730469 22.25 72.160156 Z M 18.992188 55.761719 C 18.992188 55.753906 18.992188 55.75 18.992188 55.742188 C 19.660156 55.820312 20.328125 55.898438 20.996094 55.976562 C 20.390625 57.601562 19.859375 59.253906 19.382812 60.921875 C 19.285156 60.367188 19.195312 59.808594 19.113281 59.25 C 19.035156 58.097656 18.992188 56.9375 18.992188 55.761719 Z M 24.429688 48.257812 C 23.425781 50.171875 22.515625 52.140625 21.703125 54.148438 C 20.8125 54.042969 19.921875 53.9375 19.03125 53.835938 C 19.136719 50.867188 19.492188 47.972656 20.070312 45.167969 C 21.460938 45.359375 22.84375 45.5625 24.230469 45.773438 C 24.292969 46.601562 24.359375 47.429688 24.429688 48.257812 Z M 32.617188 36.171875 C 32.578125 35.640625 32.546875 35.109375 32.511719 34.582031 C 32.925781 34.679688 33.339844 34.78125 33.753906 34.878906 C 33.367188 35.304688 32.992188 35.734375 32.617188 36.171875 Z M 49.40625 37.148438 C 46.636719 36.3125 43.855469 35.519531 41.0625 34.769531 C 42.625 33.320312 44.273438 31.953125 46 30.691406 C 46.707031 30.175781 47.429688 29.683594 48.15625 29.203125 C 48.535156 31.859375 48.957031 34.503906 49.40625 37.148438 Z M 56.335938 19.3125 C 53.898438 20.277344 51.519531 21.382812 49.21875 22.648438 C 48.835938 19.5 48.5 16.339844 48.21875 13.175781 C 50.765625 13.496094 53.296875 13.910156 55.808594 14.410156 C 55.972656 16.046875 56.144531 17.683594 56.335938 19.3125 Z M 58.175781 18.617188 C 58.03125 17.351562 57.894531 16.085938 57.765625 14.824219 C 60.152344 15.34375 62.519531 15.941406 64.859375 16.621094 C 62.597656 17.164062 60.367188 17.828125 58.175781 18.617188 Z M 77.164062 20.976562 C 77.652344 24.863281 78.140625 28.75 78.628906 32.636719 C 75.664062 31.363281 72.65625 30.179688 69.613281 29.09375 C 69.21875 26.394531 68.863281 23.691406 68.546875 20.980469 C 70.671875 20.566406 72.8125 20.265625 74.972656 20.082031 C 75.703125 20.371094 76.4375 20.671875 77.164062 20.976562 Z M 88.136719 24.144531 C 85.285156 22.59375 82.367188 21.160156 79.394531 19.859375 C 82.175781 19.820312 84.964844 19.972656 87.726562 20.3125 C 87.863281 21.589844 88 22.867188 88.136719 24.144531 Z M 105.617188 35.902344 C 105.480469 34.148438 105.335938 32.390625 105.195312 30.640625 C 106.601562 33.15625 107.804688 35.816406 108.777344 38.59375 C 107.742188 37.679688 106.691406 36.777344 105.617188 35.902344 Z M 106.804688 50.566406 C 108.234375 51.582031 109.648438 52.621094 111.042969 53.683594 C 111.035156 57.015625 111.027344 60.347656 111.019531 63.679688 C 109.921875 63.046875 108.820312 62.425781 107.714844 61.808594 C 107.410156 58.0625 107.109375 54.3125 106.804688 50.566406 Z M 101.285156 46.816406 C 102.460938 47.578125 103.621094 48.359375 104.777344 49.152344 C 105.085938 53 105.398438 56.851562 105.707031 60.699219 C 104.652344 60.125 103.589844 59.550781 102.527344 58.984375 C 102.113281 54.929688 101.699219 50.875 101.285156 46.816406 Z M 91.882812 41.195312 C 94.371094 42.570312 96.824219 44.011719 99.238281 45.519531 C 99.660156 49.652344 100.082031 53.785156 100.503906 57.917969 C 98.113281 56.671875 95.707031 55.460938 93.285156 54.285156 C 92.816406 49.921875 92.347656 45.558594 91.882812 41.195312 Z M 89.605469 37.839844 C 86.667969 36.304688 83.683594 34.867188 80.65625 33.519531 C 80.167969 29.628906 79.679688 25.742188 79.1875 21.855469 C 82.324219 23.25 85.394531 24.789062 88.386719 26.46875 C 88.792969 30.257812 89.199219 34.046875 89.605469 37.839844 Z M 97.90625 32.453125 C 98.269531 36.023438 98.632812 39.589844 98.996094 43.15625 C 96.582031 41.679688 94.125 40.265625 91.636719 38.921875 C 91.234375 35.160156 90.832031 31.398438 90.425781 27.640625 C 92.984375 29.140625 95.476562 30.75 97.90625 32.453125 Z M 99.710938 31.382812 C 99.480469 29.128906 99.25 26.875 99.019531 24.621094 C 100.394531 25.671875 101.742188 26.757812 103.058594 27.882812 C 103.230469 30.007812 103.402344 32.136719 103.570312 34.265625 C 102.304688 33.277344 101.019531 32.316406 99.710938 31.382812 Z M 104.578125 46.730469 C 103.410156 45.945312 102.230469 45.183594 101.039062 44.429688 C 100.6875 40.933594 100.328125 37.4375 99.972656 33.941406 C 101.265625 34.894531 102.535156 35.875 103.785156 36.882812 C 104.050781 40.164062 104.3125 43.449219 104.578125 46.730469 Z M 111.054688 47.699219 C 111.054688 48.90625 111.050781 50.109375 111.046875 51.3125 C 109.585938 50.222656 108.105469 49.15625 106.609375 48.117188 C 106.351562 44.9375 106.09375 41.761719 105.835938 38.582031 C 107.214844 39.75 108.570312 40.957031 109.890625 42.195312 C 110.375 43.988281 110.765625 45.828125 111.054688 47.699219 Z M 96.949219 23.074219 C 97.183594 25.367188 97.417969 27.65625 97.648438 29.949219 C 95.21875 28.296875 92.726562 26.742188 90.175781 25.285156 C 90.007812 23.71875 89.839844 22.148438 89.671875 20.582031 C 91.433594 20.855469 93.179688 21.210938 94.910156 21.636719 C 95.59375 22.109375 96.277344 22.585938 96.949219 23.074219 Z M 82.652344 49.371094 C 82.078125 44.816406 81.507812 40.261719 80.933594 35.707031 C 83.949219 37.074219 86.921875 38.539062 89.847656 40.097656 C 90.320312 44.503906 90.792969 48.90625 91.265625 53.308594 C 88.417969 51.949219 85.542969 50.636719 82.652344 49.371094 Z M 72.9375 47.382812 C 75.609375 48.449219 78.265625 49.554688 80.90625 50.703125 C 81.179688 52.855469 81.449219 55.011719 81.71875 57.164062 C 79.390625 56.429688 77.050781 55.714844 74.703125 55.027344 C 74.078125 52.488281 73.492188 49.9375 72.9375 47.382812 Z M 61.988281 43.265625 C 64.941406 44.308594 67.882812 45.402344 70.804688 46.539062 C 71.359375 49.167969 71.953125 51.792969 72.585938 54.40625 C 69.675781 53.570312 66.761719 52.765625 63.832031 52 C 63.175781 49.09375 62.558594 46.183594 61.988281 43.265625 Z M 53.359375 26.175781 C 54.691406 26.503906 56.023438 26.84375 57.347656 27.203125 C 57.96875 31.605469 58.683594 36 59.492188 40.375 C 56.824219 39.464844 54.140625 38.597656 51.445312 37.765625 C 50.882812 34.550781 50.382812 31.320312 49.925781 28.089844 C 51.050781 27.410156 52.191406 26.769531 53.359375 26.175781 Z M 57.066406 25.175781 C 56.726562 25.082031 56.386719 24.992188 56.046875 24.902344 C 56.355469 24.765625 56.664062 24.625 56.972656 24.492188 C 57.003906 24.71875 57.039062 24.949219 57.066406 25.175781 Z M 59.070312 25.722656 C 58.980469 25.070312 58.886719 24.414062 58.800781 23.761719 C 61.363281 22.78125 63.996094 21.984375 66.671875 21.375 C 66.945312 23.714844 67.25 26.050781 67.585938 28.382812 C 64.773438 27.417969 61.933594 26.53125 59.070312 25.722656 Z M 69.9375 31.214844 C 72.960938 32.320312 75.953125 33.515625 78.902344 34.800781 C 79.476562 39.363281 80.054688 43.929688 80.628906 48.488281 C 77.921875 47.328125 75.199219 46.210938 72.460938 45.132812 C 71.5 40.515625 70.660156 35.875 69.9375 31.214844 Z M 70.335938 44.308594 C 67.433594 43.1875 64.511719 42.117188 61.574219 41.09375 C 60.738281 36.667969 59.996094 32.226562 59.351562 27.769531 C 62.222656 28.59375 65.070312 29.496094 67.890625 30.480469 C 68.589844 35.109375 69.402344 39.71875 70.335938 44.308594 Z M 51.835938 39.894531 C 54.535156 40.738281 57.226562 41.621094 59.90625 42.542969 C 60.476562 45.523438 61.089844 48.5 61.746094 51.460938 C 59.089844 50.785156 56.425781 50.128906 53.753906 49.507812 C 53.058594 46.3125 52.421875 43.105469 51.835938 39.894531 Z M 41.144531 46.800781 C 40.683594 43.363281 40.300781 39.917969 39.984375 36.464844 C 43.265625 37.339844 46.53125 38.269531 49.777344 39.253906 C 50.363281 42.527344 51.003906 45.789062 51.699219 49.039062 C 48.191406 48.242188 44.671875 47.496094 41.144531 46.800781 Z M 41.429688 48.785156 C 45.011719 49.5 48.582031 50.261719 52.144531 51.082031 C 52.648438 53.359375 53.179688 55.632812 53.738281 57.898438 C 50.046875 57.46875 46.351562 57.035156 42.65625 56.601562 C 42.203125 54.003906 41.800781 51.394531 41.429688 48.785156 Z M 33.742188 47.335938 C 35.644531 47.671875 37.539062 48.027344 39.4375 48.394531 C 39.808594 51.058594 40.214844 53.714844 40.671875 56.367188 C 38.777344 56.148438 36.886719 55.925781 34.992188 55.703125 C 34.519531 52.921875 34.101562 50.132812 33.742188 47.335938 Z M 33.296875 43.570312 C 34.789062 41.492188 36.414062 39.515625 38.164062 37.648438 C 38.445312 40.578125 38.78125 43.496094 39.164062 46.414062 C 37.28125 46.050781 35.394531 45.703125 33.5 45.367188 C 33.429688 44.769531 33.363281 44.171875 33.296875 43.570312 Z M 27.050781 54.773438 C 27.042969 54.703125 27.035156 54.636719 27.023438 54.566406 C 28.195312 51.910156 29.550781 49.335938 31.082031 46.875 C 31.316406 46.914062 31.542969 46.949219 31.773438 46.988281 C 32.128906 49.824219 32.546875 52.65625 33.019531 55.472656 C 31.03125 55.238281 29.039062 55.003906 27.050781 54.773438 Z M 27.480469 68.507812 C 25.90625 68.535156 24.332031 68.5625 22.757812 68.59375 C 23.382812 65.03125 24.335938 61.523438 25.589844 58.125 C 26.105469 61.605469 26.738281 65.066406 27.480469 68.507812 Z M 27.3125 56.71875 C 29.328125 56.953125 31.34375 57.191406 33.359375 57.425781 C 34.011719 61.085938 34.761719 64.734375 35.609375 68.355469 C 33.546875 68.394531 31.476562 68.433594 29.410156 68.472656 C 28.566406 64.582031 27.871094 60.660156 27.3125 56.71875 Z M 91.601562 60.4375 C 88.980469 59.527344 86.355469 58.644531 83.714844 57.796875 C 83.453125 55.726562 83.191406 53.65625 82.933594 51.585938 C 85.808594 52.859375 88.667969 54.179688 91.503906 55.546875 C 91.679688 57.191406 91.859375 58.832031 92.03125 60.476562 C 91.890625 60.460938 91.746094 60.449219 91.601562 60.4375 Z M 25.734375 33.050781 C 27.347656 33.394531 28.957031 33.753906 30.5625 34.125 C 30.652344 35.511719 30.753906 36.902344 30.867188 38.289062 C 29.371094 40.191406 27.984375 42.179688 26.714844 44.238281 C 26.488281 44.203125 26.265625 44.167969 26.039062 44.132812 C 25.8125 40.445312 25.710938 36.75 25.734375 33.050781 Z M 46.335938 81.507812 C 46.6875 82.757812 47.039062 84.007812 47.410156 85.253906 C 45.933594 85.917969 44.414062 86.472656 42.875 86.917969 C 42.359375 85.386719 41.859375 83.851562 41.378906 82.3125 C 43.042969 82.121094 44.695312 81.859375 46.335938 81.507812 Z M 40.804688 80.445312 C 39.785156 77.0625 38.851562 73.65625 38.011719 70.222656 C 39.816406 70.191406 41.625 70.160156 43.433594 70.125 C 44.167969 73.316406 44.957031 76.492188 45.816406 79.652344 C 44.15625 80 42.484375 80.265625 40.804688 80.445312 Z M 64.550781 65.894531 C 63.480469 66.496094 62.4375 67.164062 61.417969 67.882812 C 60.414062 67.898438 59.40625 67.917969 58.402344 67.933594 C 57.65625 65.335938 56.945312 62.726562 56.273438 60.109375 C 58.863281 60.414062 61.449219 60.714844 64.035156 61.019531 C 64.421875 62.523438 64.816406 64.027344 65.222656 65.527344 C 65 65.648438 64.773438 65.769531 64.550781 65.894531 Z M 110.226562 68.023438 C 110.175781 67.960938 110.128906 67.898438 110.078125 67.839844 C 109.398438 67.035156 108.601562 66.328125 107.726562 65.679688 C 107.894531 65.527344 107.996094 65.296875 107.96875 64.988281 C 107.945312 64.695312 107.921875 64.398438 107.898438 64.105469 C 108.847656 64.636719 109.789062 65.175781 110.730469 65.71875 C 110.578125 66.492188 110.410156 67.261719 110.226562 68.023438 Z M 75.492188 7.707031 C 75.558594 8.242188 75.625 8.777344 75.695312 9.308594 C 73.074219 8.289062 70.410156 7.382812 67.707031 6.585938 C 70.367188 6.726562 72.96875 7.109375 75.492188 7.707031 Z M 42.964844 12.636719 C 44.074219 12.722656 45.179688 12.820312 46.28125 12.941406 C 46.570312 16.265625 46.925781 19.582031 47.328125 22.894531 C 44.585938 22.339844 41.828125 21.863281 39.058594 21.460938 C 38.992188 19.40625 38.949219 17.355469 38.933594 15.300781 C 40.234375 14.34375 41.578125 13.453125 42.964844 12.636719 Z M 38.234375 95.703125 C 38.082031 95.582031 37.929688 95.464844 37.78125 95.34375 C 37.0625 93.601562 36.378906 91.847656 35.726562 90.085938 C 37.722656 89.957031 39.707031 89.660156 41.65625 89.203125 C 42.351562 91.207031 43.082031 93.203125 43.839844 95.1875 C 42.011719 95.597656 40.132812 95.773438 38.234375 95.703125 Z M 45.679688 94.691406 C 44.921875 92.710938 44.191406 90.722656 43.492188 88.722656 C 44.9375 88.300781 46.359375 87.792969 47.753906 87.191406 C 47.082031 89.46875 46.582031 91.90625 46.269531 94.5 C 46.074219 94.566406 45.878906 94.628906 45.679688 94.691406 Z M 129.558594 171.25 C 126.496094 147.042969 118.507812 123.972656 106.5 103.078125 C 109.808594 102.449219 113.207031 102.335938 116.589844 102.75 L 141.253906 172.707031 C 137.429688 170.964844 133.363281 170.558594 129.558594 171.25 Z M 191.160156 141.058594 C 183.144531 127.804688 173.179688 115.835938 165.496094 102.367188 C 161.941406 96.132812 157.09375 88.089844 158.617188 80.628906 C 159.1875 77.84375 160.945312 75.023438 163.730469 74.054688 C 166.027344 73.261719 169.339844 74.175781 170.269531 76.585938 C 171.441406 79.621094 176.378906 78.304688 175.191406 75.230469 C 173.1875 70.019531 167.664062 67.769531 162.375 69.136719 C 156.4375 70.675781 153.519531 77.269531 153.234375 82.84375 C 152.851562 90.285156 157.164062 97.832031 160.628906 104.125 C 164.394531 110.957031 168.851562 117.386719 173.328125 123.765625 C 182.132812 136.308594 191.367188 148.886719 196.339844 163.542969 C 200.933594 177.085938 201.152344 193.011719 192.734375 205.128906 C 185.015625 216.242188 170.609375 221.359375 158.140625 215.417969 C 148.539062 210.84375 142.410156 202.160156 137.566406 192.890625 C 137.707031 192.808594 137.851562 192.734375 137.992188 192.648438 C 140.34375 191.230469 142.527344 189.183594 144.320312 186.453125 C 146.121094 183.722656 147.53125 180.324219 148.472656 176.160156 L 148.664062 175.304688 L 113.910156 76.714844 C 116.417969 70.246094 117.808594 63.171875 117.808594 55.761719 C 117.808594 49.675781 116.871094 43.8125 115.148438 38.324219 C 115.359375 37.984375 115.398438 37.535156 115.070312 37.148438 C 114.90625 36.957031 114.738281 36.769531 114.570312 36.582031 C 113.515625 33.5625 112.214844 30.664062 110.695312 27.917969 C 113.167969 28.378906 114.984375 24.667969 112.421875 23.195312 C 110.050781 21.828125 107.59375 20.640625 105.078125 19.609375 C 104.253906 18.597656 103.394531 17.621094 102.5 16.675781 C 97.765625 11.664062 92.113281 7.59375 85.820312 4.777344 C 79.53125 1.960938 72.597656 0.398438 65.335938 0.398438 C 58.074219 0.398438 51.140625 1.960938 44.851562 4.777344 C 35.410156 9.003906 27.417969 16.042969 21.78125 24.875 C 20.753906 26.488281 19.804688 28.164062 18.9375 29.894531 C 18.429688 30.089844 18.175781 30.699219 18.324219 31.160156 C 14.832031 38.578125 12.863281 46.933594 12.863281 55.761719 C 12.863281 63.304688 14.296875 70.503906 16.894531 77.066406 C 16.792969 80.742188 17.007812 84.429688 17.554688 88.082031 C 17.988281 90.988281 21.964844 90.183594 22.457031 87.679688 C 24.171875 90.238281 26.082031 92.632812 28.171875 94.847656 C 32.910156 99.859375 38.558594 103.929688 44.851562 106.746094 C 48.394531 108.332031 52.144531 109.511719 56.039062 110.246094 L 112.6875 192.289062 L 113.433594 192.636719 C 113.535156 192.6875 115.0625 193.40625 117.464844 194.125 C 119.867188 194.84375 123.152344 195.570312 126.8125 195.574219 C 128.757812 195.574219 130.8125 195.359375 132.886719 194.808594 C 137.601562 203.8125 143.367188 212.140625 152.117188 217.878906 C 163.191406 225.136719 176.839844 224.582031 187.644531 217.167969 C 199.035156 209.355469 204.351562 196.152344 204.605469 182.683594 C 204.886719 167.753906 198.746094 153.601562 191.160156 141.058594 "/>
</g>
<path style=" stroke:none;fill-rule:nonzero;fill:rgb(13.328552%,12.939453%,16.079712%);fill-opacity:1;" d="M 178.859375 83.894531 C 182.152344 83.894531 182.152344 78.796875 178.859375 78.796875 C 175.5625 78.796875 175.5625 83.894531 178.859375 83.894531 "/>
</g>
</svg>
